<?xml version="1.0" encoding="utf-8"?>
<!-- Generator: Adobe Illustrator 19.2.1, SVG Export Plug-In . SVG Version: 6.00 Build 0)  -->
<svg version="1.1" id="Capa_1" xmlns="http://www.w3.org/2000/svg" xmlns:xlink="http://www.w3.org/1999/xlink" x="0px" y="0px"
	 viewBox="0 0 2500 2500" style="enable-background:new 0 0 2500 2500;" xml:space="preserve">
<style type="text/css">
	.st0{fill:#FFC107;}
	.st1{fill:#2D254F;}
	.st2{fill:#6661A8;}
	.st3{fill:url(#SVGID_1_);}
	.st4{fill:#BCBEC0;}
	.st5{fill:#FFFAFC;}
	.st6{fill:#A49BC6;}
	.st7{fill:#9E9E9E;}
	.st8{fill:#969696;}
	.st9{fill:#FFFFFF;}
</style>
<g>
	<path class="st0" d="M1250,309c518.3,0,941,422.7,941,941s-422.7,941-941,941s-941-422.7-941-941S731.7,309,1250,309L1250,309z"/>
	<path class="st1" d="M1250,374.2c482.3,0,875.8,393.4,875.8,875.8c0,482.3-393.4,875.8-875.8,875.8S374.2,1732.4,374.2,1250
		S767.7,374.2,1250,374.2L1250,374.2z"/>
	<path class="st1" d="M1250,378.3c480.2,0,871.7,391.6,871.7,871.7c0,480.2-391.6,871.7-871.7,871.7S378.3,1730.2,378.3,1250
		S769.8,378.3,1250,378.3L1250,378.3z"/>
	<path class="st2" d="M1250,633.8c339.4,0,616.2,276.8,616.2,616.2s-276.8,616.2-616.2,616.2S633.8,1589.4,633.8,1250
		S910.6,633.8,1250,633.8z M1250,584.9c366.4,0,665.1,298.8,665.1,665.1c0,366.4-298.8,665.1-665.1,665.1
		c-366.4,0-665.1-298.7-665.1-665.1S883.6,584.9,1250,584.9z"/>
	
		<radialGradient id="SVGID_1_" cx="120.1346" cy="538.9562" r="8.5592" gradientTransform="matrix(71.9893 0 0 71.9893 -7398.4033 -37549.0781)" gradientUnits="userSpaceOnUse">
		<stop  offset="0" style="stop-color:#938EAE"/>
		<stop  offset="0.23" style="stop-color:#908BAC"/>
		<stop  offset="0.62" style="stop-color:#645E89"/>
		<stop  offset="1" style="stop-color:#47416A"/>
	</radialGradient>
	<circle class="st3" cx="1250" cy="1250" r="616.2"/>
	<path class="st4" d="M575.5,784.5l57.7,56.1l-10.7,18.6l-48-13.3l35.7,34.7l-10.7,18.6L522,877.4l10.2-17.7l50.6,16.8l-38.8-37.5
		l9.7-16.8l51.6,15.4l-39.7-36L575.5,784.5L575.5,784.5z M712,742.8l-12.9,14.8l-26.1-22.7l-17.5,20.1l26.1,22.7l-12.9,14.8
		l-58.9-51.2l12.9-14.8l21.6,18.7l17.5-20.1l-21.6-18.8l12.9-14.8L712,742.8z M773.3,634.2c8.1,9.6,11.9,19.4,11.4,29.3
		c-0.5,9.9-5.2,18.6-14.3,26.2c-9.1,7.6-18.5,10.7-28.3,9.4s-18.8-6.7-26.7-16.3c-8-9.6-11.9-19.3-11.4-29.2
		c0.5-9.9,5.1-18.6,14.2-26.2c9-7.6,18.4-10.7,28.2-9.4C756.3,619.1,765.3,624.5,773.3,634.2L773.3,634.2z M757.8,647.2
		c-2.5-3.1-5.4-5.9-8.8-8.1c-2.4-1.8-5.2-3-8.1-3.6c-2.4-0.6-5-0.5-7.3,0.2c-2.1,0.7-4.2,1.7-6,3.2c-1.8,1.4-3.2,3.2-4.2,5.2
		c-1,2.2-1.5,4.7-1.4,7.1c0.1,2.6,0.8,5.5,2.2,8.7c1.4,3.2,3.5,6.6,6.5,10.2c3.1,3.6,6,6.4,8.8,8.2c2.8,1.8,5.4,3,8,3.5
		c2.7,0.6,5.1,0.6,7.4-0.1c2.2-0.7,4.2-1.7,6-3.2c1.8-1.5,3.2-3.3,4.2-5.5c1-2.1,1.5-4.6,1.3-7.1c-0.2-3-0.9-5.9-2.1-8.6
		C763.1,654.2,761,650.9,757.8,647.2z M939.2,489.8l17.8,78.5l-19.2,9.7l-33.1-37.3l11.1,48.5l-19.2,9.8l-53-60.5l18.1-9.2
		l33.3,41.7l-12.1-52.5l17.3-8.9l34.8,41l-13.7-51.8L939.2,489.8L939.2,489.8z M1003.7,548.6l5.2-82.2l20.6-5.5l45.7,68.6l-19.5,5.2
		l-8.9-14.1l-23.6,6.4l-0.6,16.7L1003.7,548.6L1003.7,548.6z M1039.1,508l-14.3-22.8l-1,26.9L1039.1,508z M1178.4,511.6l-18.7,2.3
		l-36.4-50.4l6.6,54l-17.7,2.1l-9.5-77.4l23.9-2.9l30.2,41.3l-5.4-44.4l17.7-2.1L1178.4,511.6L1178.4,511.6z M1238.6,507.4
		l-1.1-63.1l-23.1,0.4l-0.3-14.9l65.7-1.2l0.3,14.9l-23.1,0.4l1.1,63.1L1238.6,507.4z M1342.9,514.2c-5.2-0.6-10.5-1.8-15.4-3.6
		c-4.1-1.6-8.1-3.5-12-5.8l2.2-18.4l1.8,0.2c3.5,3.7,7.5,6.8,11.9,9.2c4.5,2.3,9,3.7,13.4,4.3c1.1,0.2,2.6,0.2,4.5,0.2
		s3.4-0.3,4.6-0.7c1.4-0.4,2.6-1.1,3.7-2.1c1.1-1,1.8-2.5,2-4c0.3-1.9-0.4-3.7-1.7-5c-1.5-1.4-3.2-2.6-5.1-3.4c-2.5-1-5.3-2.1-8.2-3
		c-2.9-0.9-5.6-2.1-8.1-3.4c-5.7-2.8-9.7-6.2-11.9-10.1c-2.1-3.9-2.9-8.5-2.2-13.9c0.8-7.2,4.7-12.7,11.4-16.4
		c6.7-3.7,14.6-5,23.8-3.9c4.6,0.6,9.2,1.6,13.5,3.1c4.5,1.5,8.4,3.3,11.8,5.3l-2.1,17.7l-1.7-0.2c-2.8-3-6.2-5.5-9.8-7.5
		c-3.8-2.1-8-3.5-12.4-4.1c-1.7-0.2-3.3-0.3-4.6-0.2c-1.5,0.1-3,0.5-4.5,0.9c-1.3,0.4-2.4,1.1-3.5,2.1c-1,0.9-1.6,2.1-1.8,3.5
		c-0.3,1.8,0.3,3.6,1.6,5c1.2,1.3,3.8,2.7,7.8,4.1l7.3,2.6c2.3,0.8,4.9,2,7.5,3.3c5.1,2.6,8.8,5.7,11,9.3c2.2,3.5,3,8,2.3,13.5
		c-0.9,7.7-4.7,13.5-11.4,17.5C1361.6,514.2,1353.1,515.5,1342.9,514.2L1342.9,514.2z M1491.6,546l19.5-60.1l-22-7.1l4.6-14.1
		l62.5,20.3l-4.6,14.1l-22-7.1l-19.5,60.1L1491.6,546L1491.6,546z M1647,572.3c-5.7,11.2-13.3,18.6-22.5,22
		c-9.2,3.4-19.2,2.4-29.6-2.9c-10.5-5.3-17.1-12.8-19.7-22.4c-2.6-9.5-1.2-19.9,4.5-30.9c5.7-11.2,13.2-18.5,22.5-22
		c9.2-3.5,19.2-2.5,29.7,2.8c10.4,5.3,17,12.8,19.7,22.2C1654.2,550.7,1652.7,561.1,1647,572.3L1647,572.3z M1629,563.1
		c2.1-4.1,3.5-7.9,4.1-11.2c0.7-3.4,0.7-6.4,0.3-9c-0.5-2.4-1.5-4.7-3-6.6c-1.4-1.8-3.2-3.2-5.2-4.2c-2-1-4.2-1.7-6.4-1.9
		c-2.4-0.1-4.9,0.5-7.1,1.5c-2.7,1.3-5.1,3.2-7.1,5.4c-2.7,3-5,6.4-6.8,10c-2.1,4.3-3.5,8-4.1,11.3c-0.7,2.9-0.7,5.9-0.2,8.9
		c0.6,2.6,1.5,5,3,6.7c1.5,1.8,3.3,3.2,5.2,4.2c2.1,1,4.3,1.7,6.6,1.7c2.3,0.1,4.7-0.5,7-1.6c2.5-1.2,4.9-3,7-5.3
		C1624.6,570.8,1626.7,567.4,1629,563.1L1629,563.1z M1778.8,688.2c-2.5,3-5.2,5.1-8.2,6.4c-2.9,1.3-6.1,1.9-9.2,1.8
		c-3.6-0.1-7.3-0.9-10.6-2.4c-3.3-1.5-7-4-11.2-7.5l-23.9-20.1l50.1-59.8l21.1,17.7c4.4,3.6,7.6,6.6,9.5,8.9c2,2.2,3.5,4.7,4.6,7.5
		c1.2,2.9,1.5,5.8,0.9,8.7c-0.7,3-2.1,5.7-4,8c-2.2,2.8-5.3,4.9-8.7,6c-3.4,1-6.8,1-10.3,0l-0.3,0.3c3,3.8,4.7,7.9,4.9,12.1
		C1783.9,680,1782.2,684.2,1778.8,688.2L1778.8,688.2z M1780.2,647.6c0.8-1,1.4-2.2,1.8-3.5c0.4-1.4,0.2-2.9-0.5-4.1
		c-0.7-1.4-1.7-2.6-2.9-3.6c-2-1.8-4-3.5-6-5.1l-1-0.8l-10.6,12.6l1.9,1.6c2.6,2.1,4.4,3.6,5.5,4.5c1,0.8,2.3,1.4,3.9,1.9
		c1.5,0.5,3,0.4,4.4-0.3C1778,649.7,1779.2,648.8,1780.2,647.6L1780.2,647.6z M1763.6,675c1.6-1.9,2.3-3.6,2.5-5.2
		c0.1-1.9-0.4-3.6-1.4-5.2c-0.8-1.4-2-2.7-3.3-3.7c-2.1-1.9-4.2-3.6-6.4-5.4l-2.7-2.3l-12.6,14.9l0.8,0.7c3.9,3.3,6.6,5.5,8.1,6.7
		c1.5,1.2,3.4,2.1,5.5,2.7c1.7,0.6,3.5,0.6,5.1-0.1C1761.1,677.5,1762.5,676.3,1763.6,675z M1792.6,734.9l58.9-51.2l34.7,39.8
		l-11.2,9.7l-21.9-25.1l-10.4,9l20.1,23.1l-11.2,9.7l-20.1-23.1l-14.9,12.9l21.9,25.1l-11.2,9.7L1792.6,734.9L1792.6,734.9z
		 M1885.7,853l80.7-16.2l10.6,18.5l-54.4,61.8l-10.1-17.5l11.4-12.2l-12.2-21.2l-16.3,3.7L1885.7,853L1885.7,853z M1934.2,876.7
		l18.3-19.7l-26.2,6L1934.2,876.7z"/>
	<path class="st5" d="M569.9,781.7l57.6,56l-10.7,18.6l-48-13.3l35.7,34.7l-10.7,18.7l-77.4-22l10.2-17.7l50.6,16.8l-38.7-37.5
		l9.7-16.8l51.6,15.4l-39.7-36L569.9,781.7L569.9,781.7z M706.3,740l-12.9,14.8L667.4,732l-17.5,20.1l26.1,22.7l-12.9,14.8
		l-58.9-51.2l12.9-14.8l21.6,18.7l17.5-20.1l-21.6-18.7l12.9-14.8L706.3,740L706.3,740z M767.7,631.3c8.1,9.6,11.9,19.4,11.4,29.3
		c-0.5,9.9-5.2,18.6-14.3,26.2c-9.1,7.6-18.5,10.7-28.3,9.4c-9.8-1.3-18.8-6.7-26.7-16.3c-8-9.6-11.9-19.3-11.4-29.2
		c0.5-9.9,5.1-18.6,14.2-26.2c9-7.6,18.4-10.6,28.2-9.4C750.6,616.3,759.6,621.7,767.7,631.3L767.7,631.3z M752.2,644.3
		c-2.5-3.1-5.4-5.9-8.8-8.1c-2.4-1.8-5.2-3-8.1-3.7c-2.4-0.6-5-0.5-7.3,0.2c-4.4,1.3-8,4.3-10.1,8.3c-1,2.2-1.5,4.7-1.4,7.1
		c0.1,2.6,0.8,5.5,2.2,8.7c1.4,3.2,3.5,6.6,6.5,10.2c3.1,3.6,6,6.4,8.8,8.2c2.7,1.8,5.4,3,8,3.6c2.7,0.6,5.1,0.6,7.4-0.1
		c4.5-1.3,8.2-4.4,10.2-8.7c1-2.1,1.5-4.6,1.3-7.1c-0.2-3-0.9-5.9-2.1-8.6C757.5,651.4,755.3,648,752.2,644.3L752.2,644.3z
		 M933.5,487l17.8,78.5l-19.2,9.7l-33.1-37.3l11.1,48.5l-19.2,9.8l-53-60.5l18.1-9.2l33.3,41.7l-12.1-52.5l17.3-8.8l34.8,41
		L915.9,496L933.5,487L933.5,487z M998,545.8l5.2-82.2l20.6-5.6l45.7,68.5l-19.5,5.2l-8.9-14.1l-23.6,6.4l-0.6,16.6L998,545.8
		L998,545.8z M1033.5,505.2l-14.3-22.8l-1,26.9L1033.5,505.2z M1172.7,508.7l-18.7,2.3l-36.4-50.4l6.6,54l-17.7,2.1l-9.5-77.4
		l23.9-2.9l30.2,41.4l-5.4-44.4l17.7-2.1L1172.7,508.7z M1232.9,504.5l-1.1-63.1l-23.1,0.4l-0.3-14.9l65.7-1.1l0.3,14.9l-23.1,0.4
		l1.1,63.1L1232.9,504.5L1232.9,504.5z M1337.2,511.4c-5.2-0.6-10.5-1.8-15.4-3.6c-4.1-1.6-8.1-3.5-12-5.8l2.2-18.4l1.8,0.2
		c3.5,3.7,7.5,6.8,11.9,9.2c4.5,2.3,9,3.7,13.4,4.3c1.1,0.1,2.6,0.2,4.5,0.2s3.4-0.2,4.6-0.7c1.4-0.4,2.6-1.1,3.7-2.1
		c1.1-1,1.8-2.5,2-4c0.3-1.9-0.4-3.7-1.7-5c-1.5-1.5-3.2-2.6-5.1-3.4c-2.7-1.1-5.4-2.1-8.2-3c-2.8-0.9-5.5-2.1-8.1-3.3
		c-5.7-2.8-9.7-6.3-11.9-10.1c-2.1-3.9-2.9-8.5-2.2-13.9c0.9-7.2,4.7-12.7,11.4-16.4s14.7-5,23.8-3.9c4.6,0.6,9.2,1.6,13.5,3.1
		c4.5,1.5,8.4,3.3,11.8,5.3l-2.1,17.7l-1.7-0.2c-2.8-3-6.2-5.5-9.7-7.5c-3.9-2.2-8.1-3.6-12.4-4.1c-1.7-0.2-3.2-0.3-4.6-0.2
		c-1.5,0.1-3,0.4-4.4,0.8c-1.3,0.4-2.5,1.1-3.5,2.1c-1,0.9-1.6,2.1-1.8,3.5c-0.3,1.8,0.3,3.6,1.6,5c1.2,1.3,3.8,2.7,7.8,4.1l7.3,2.6
		c2.3,0.8,4.9,2,7.5,3.3c5.1,2.6,8.9,5.7,11,9.2c2.1,3.6,3,8.1,2.3,13.5c-0.9,7.7-4.7,13.5-11.4,17.5
		C1355.9,511.3,1347.5,512.7,1337.2,511.4L1337.2,511.4z M1486,543.2l19.5-60.1l-22-7.1l4.6-14.1l62.5,20.3l-4.6,14.1l-22-7.1
		l-19.5,60.1L1486,543.2L1486,543.2z M1641.3,569.5c-5.7,11.2-13.3,18.6-22.5,22c-9.2,3.4-19.2,2.4-29.6-2.9
		c-10.5-5.3-17.1-12.8-19.7-22.4c-2.6-9.5-1.2-19.9,4.5-31c5.7-11.2,13.2-18.5,22.5-22c9.2-3.5,19.2-2.5,29.7,2.8
		c10.5,5.3,17.1,12.8,19.8,22.2C1648.6,547.9,1647,558.3,1641.3,569.5L1641.3,569.5z M1623.3,560.2c2.1-4.1,3.5-7.9,4.1-11.2
		c0.7-3.4,0.7-6.4,0.3-9c-0.4-2.4-1.4-4.8-3-6.6c-2.9-3.5-7.1-5.7-11.7-6.1c-2.4-0.1-4.9,0.5-7.1,1.5c-2.3,1.1-4.8,2.9-7.1,5.4
		c-2.4,2.5-4.7,5.9-6.8,10c-2.1,4.3-3.5,8-4.1,11.3c-0.6,3.3-0.7,6.2-0.2,8.9c0.6,2.6,1.5,5,3,6.7c1.5,1.8,3.2,3.2,5.2,4.2
		c2.1,1,4.2,1.6,6.6,1.7c2.3,0.1,4.8-0.5,7.1-1.6c2.5-1.2,4.9-3,7-5.3C1618.9,567.9,1621.1,564.6,1623.3,560.2z M1773.2,685.4
		c-2.2,2.7-5,5-8.2,6.4c-3,1.3-6.1,1.9-9.2,1.8c-3.6-0.1-7.3-0.9-10.6-2.4s-7-4-11.2-7.5l-23.9-20.1l50.2-59.8l21.1,17.7
		c4.4,3.6,7.6,6.6,9.5,8.9s3.5,4.7,4.6,7.5c1.2,2.9,1.5,5.8,0.9,8.6c-0.7,3-2,5.7-4,8c-2.4,2.9-5.3,4.9-8.7,6c-3.4,1-6.9,1-10.3,0
		l-0.3,0.3c3.1,3.8,4.7,7.9,4.9,12.2C1778.2,677.2,1776.6,681.4,1773.2,685.4z M1774.5,644.8c0.8-1,1.5-2.3,1.8-3.6
		c0.4-1.4,0.2-2.9-0.5-4.1c-0.7-1.4-1.7-2.6-2.9-3.6c-2-1.8-4-3.5-6-5.1l-1-0.8l-10.6,12.6l1.9,1.6c2.5,2.1,4.4,3.6,5.5,4.5
		c1.2,0.8,2.5,1.5,3.9,1.9c1.5,0.5,3,0.4,4.5-0.3C1772.4,646.9,1773.6,646,1774.5,644.8L1774.5,644.8z M1758,672.1
		c1.6-1.9,2.3-3.6,2.5-5.2c0.1-1.9-0.4-3.6-1.4-5.2c-0.8-1.4-2-2.7-3.3-3.7c-1.6-1.4-3.6-3.2-6.4-5.4l-2.7-2.3l-12.5,14.9l0.7,0.7
		c3.9,3.3,6.6,5.5,8.1,6.7c1.6,1.2,3.4,2.1,5.5,2.7c1.7,0.6,3.5,0.6,5.1-0.1C1755.4,674.6,1756.9,673.5,1758,672.1z M1786.9,732.1
		l58.9-51.2l34.7,39.8l-11.2,9.8l-21.8-25.1l-10.4,9l20.1,23.2l-11.3,9.7l-20.1-23.2l-14.9,12.9l21.9,25.1l-11.3,9.8L1786.9,732.1z
		 M1880.1,850.2l80.7-16.2l10.6,18.5l-54.4,61.8l-10.1-17.5l11.4-12.2l-12.2-21.2l-16.3,3.7L1880.1,850.2L1880.1,850.2z
		 M1928.5,873.9l18.3-19.7l-26.2,6L1928.5,873.9z"/>
	<path class="st4" d="M693.5,1757.4l-73.6,32.5l-13.3-16.9l30.3-39.6l-45.5,20.2l-13.3-17l49.3-63.6l12.5,16.1l-34.6,40.6l49.2-21.9
		l12,15.3l-33.6,42l48.2-23.4L693.5,1757.4L693.5,1757.4z M706.9,1880.6l-14.1-13.6l24-24.8l-19.2-18.5l-24,24.8l-14.1-13.6
		l54.2-56.1l14.1,13.6l-19.8,20.6l19.2,18.5l19.8-20.6l14.1,13.6L706.9,1880.6z M823.4,1921.5c-7.4,10.2-16,16.3-25.7,18.1
		s-19.3-0.7-28.8-7.5c-9.5-6.9-14.9-15.3-16-25.2c-1.1-9.9,2-19.8,9.2-29.9c7.4-10.1,15.9-16.2,25.6-18.1c9.7-2,19.3,0.6,28.9,7.5
		s14.9,15.2,16.1,25.1C833.9,1901.2,830.8,1911.2,823.4,1921.5z M807.1,1909.5c2.7-3.7,4.7-7.3,5.8-10.5c1.1-3.2,1.7-6.2,1.6-8.8
		c0-2.4-0.7-4.9-1.9-7c-2.3-3.9-6.2-6.7-10.6-7.8c-2.4-0.5-4.9-0.3-7.3,0.4c-2.5,0.7-5.1,2.1-7.9,4.2c-2.8,2.1-5.5,5-8.3,8.9
		c-2.8,3.8-4.8,7.4-5.9,10.5c-1.1,3.2-1.6,6.1-1.5,8.7c0.1,2.7,0.7,5.1,1.9,7.1c2.3,4,6.3,6.8,10.8,7.8c2.3,0.5,4.8,0.3,7.3-0.5
		c2.7-0.8,5.3-2.2,7.8-4.1C801.5,1916.4,804.2,1913.4,807.1,1909.5L807.1,1909.5z M1013.8,1972.5l-47.5,64.9l-19.9-8l6.4-49.4
		l-29.3,40.2l-20-8l10.9-79.7l18.9,7.6l-9.6,52.5l31.8-43.5l18,7.3l-8.1,53.2l30.1-44.3L1013.8,1972.5L1013.8,1972.5z
		 M1015.1,2054.5l44.5-69.3l20.7,5.1l6.7,82l-19.6-4.9l-0.9-16.6l-23.7-5.9l-8.6,14.3L1015.1,2054.5L1015.1,2054.5z M1065.7,2036.1
		l-1.5-26.9l-13.9,23L1065.7,2036.1L1065.7,2036.1z M1190.6,2088.6l-18.7-2.6l-22.2-58l-7.6,53.8l-17.7-2.5l10.8-77.3l23.8,3.4
		l18.4,47.7l6.3-44.3l17.7,2.5L1190.6,2088.6L1190.6,2088.6z M1252.9,2090.2l-2.2-63.1l-23.1,0.7l-0.5-14.9l65.7-2.2l0.6,14.9
		l-23,0.8l2.1,63.1L1252.9,2090.2L1252.9,2090.2z M1358.5,2084.8c-5.9,0.8-11.2,1-15.9,0.5c-4.4-0.5-8.8-1.3-13.1-2.5l-2.6-18.4
		l1.8-0.3c4.3,2.7,9,4.7,13.8,5.8c5,1.1,9.6,1.3,14,0.7c1.1-0.2,2.5-0.5,4.3-0.9c1.5-0.4,2.9-1,4.2-1.8c1.2-0.7,2.3-1.8,3.1-3
		c0.8-1.3,1.1-2.9,0.7-4.4c-0.2-1.9-1.3-3.5-3-4.4c-1.8-1-3.7-1.7-5.8-1.9c-2.9-0.4-5.8-0.6-8.7-0.7s-5.8-0.6-8.7-1.1
		c-6.3-1.2-10.9-3.5-14.1-6.7c-3.1-3.2-5-7.5-5.8-12.8c-1-7.2,1.2-13.5,6.7-18.9c5.5-5.3,12.8-8.7,22-9.9c4.6-0.7,9.2-0.8,13.9-0.6
		c4.3,0.3,8.6,0.9,12.8,2.1l2.5,17.7l-1.7,0.3c-3.5-2.1-7.4-3.8-11.4-4.8c-5.8-1.5-11.9-1.4-17.7,0.3c-1.4,0.5-2.8,1.2-4.1,2
		c-1.1,0.7-2.1,1.8-2.8,2.9c-0.7,1.1-1,2.5-0.7,3.8c0.2,1.8,1.2,3.5,2.7,4.4c1.6,0.9,4.5,1.7,8.6,2c2.7,0.3,5.2,0.5,7.8,0.7
		c2.5,0.3,5.1,0.7,8,1.2c5.6,1.2,10,3.2,13.1,6.1s5,7,5.7,12.4c1,7.7-1,14.3-6.4,19.8C1376.6,2079.8,1368.7,2083.3,1358.5,2084.8
		L1358.5,2084.8z M1506.5,2049.8l-21.6-59.3l-21.7,7.8l-5-14l61.7-22.5l5,14l-21.7,7.8l21.6,59.3L1506.5,2049.8L1506.5,2049.8z
		 M1629.9,1956c5.7,11.3,7.2,21.6,4.5,31.1c-2.7,9.4-9.3,16.9-19.8,22.2c-10.5,5.4-20.4,6.3-29.7,2.8c-9.3-3.5-16.8-10.7-22.4-21.9
		c-5.7-11.2-7.2-21.5-4.6-31.1c2.6-9.5,9.2-17,19.7-22.3c10.5-5.3,20.4-6.3,29.6-2.9C1616.7,1937.4,1624.2,1944.7,1629.9,1956
		L1629.9,1956z M1611.9,1965.1c-1.8-3.6-4-6.9-6.7-9.9c-2-2.2-4.4-4.1-7-5.4c-2.2-1.1-4.7-1.6-7.1-1.5c-2.2,0.1-4.5,0.7-6.5,1.7
		c-2.1,1.1-3.9,2.4-5.2,4.1c-1.4,1.7-2.3,3.8-3,6.6c-0.5,2.5-0.5,5.6,0.2,9c0.7,3.5,2.1,7.2,4.1,11.4c2.1,4.3,4.4,7.6,6.6,10
		c2.2,2.3,4.6,4.1,7,5.3c2.4,1.1,4.9,1.7,7.2,1.5c2.3-0.1,4.5-0.7,6.5-1.8c2.1-1,3.8-2.5,5.3-4.4s2.4-4.1,2.9-6.6
		c0.5-2.9,0.4-6-0.2-8.9C1615.5,1973.2,1614.1,1969.5,1611.9,1965.1L1611.9,1965.1z M1770.7,1877.9c2.4,3,4,6.2,4.8,9.3
		c0.7,3.2,0.7,6.4,0,9.4c-0.8,3.5-2.3,6.9-4.4,9.9c-2.1,3-5.2,6.2-9.4,9.5l-24.3,19.6l-49.1-60.6l21.4-17.4
		c4.5-3.6,7.9-6.2,10.6-7.7c2.5-1.5,5.3-2.5,8.1-3.1c3.2-0.6,6.1-0.3,8.7,0.7c2.6,1.1,5,2.9,7.1,5.4c2.3,3,3.7,6.2,4.1,9.7
		c0.4,3.5-0.3,7-2,10.1l0.3,0.3c4.4-2.2,8.7-3.1,12.9-2.5C1763.5,1871.4,1767.3,1873.7,1770.7,1877.9L1770.7,1877.9z M1731,1868.8
		c-0.8-1-2-1.9-3.2-2.4c-1.3-0.7-2.8-0.7-4.2-0.3c-1.3,0.4-2.7,1.1-4.1,2.1c-2.1,1.6-4.1,3.3-6.2,4.9l-1,0.8l10.4,12.8l2-1.6
		c2.6-2.1,4.4-3.6,5.4-4.5c1-0.9,1.9-2.1,2.5-3.5c0.7-1.3,0.9-2.9,0.7-4.4C1732.8,1871.4,1731.9,1870,1731,1868.8L1731,1868.8z
		 M1754.7,1890.3c-1.5-1.9-3.1-3-4.7-3.5s-3.5-0.3-5.4,0.4c-1.6,0.6-3,1.4-4.3,2.5c-1.7,1.2-3.8,3-6.5,5.1l-2.8,2.2l12.3,15.2
		l0.8-0.7c3.9-3.2,6.6-5.5,8.1-6.7c1.5-1.3,2.7-2.9,3.7-4.9c0.8-1.6,1.2-3.4,0.9-5C1756.7,1893.3,1755.8,1891.7,1754.7,1890.3
		L1754.7,1890.3z M1816.5,1868.7l-54.2-56.1l37.9-36.6l10.4,10.6l-23.9,23.1l9.5,9.8l22-21.3l10.4,10.7l-22,21.3l13.7,14.2
		l23.9-23.1l10.4,10.7L1816.5,1868.7L1816.5,1868.7z M1918.8,1756.5l-48.8-66.3l12.2-17.5l79,23.2l-11.6,16.5l-15.9-5.1l-14,20.1
		l10.3,13.2L1918.8,1756.5L1918.8,1756.5z M1919.8,1702.6l-25.6-8.2l16.4,21.3L1919.8,1702.6z"/>
	<path class="st5" d="M687.9,1754.5l-73.6,32.5l-13.3-16.9l30.3-39.5l-45.5,20.2l-13.3-17l49.3-63.6l12.5,16.1l-34.6,40.6l49.2-21.9
		l12,15.3l-33.6,41.9l48.2-23.4L687.9,1754.5L687.9,1754.5z M701.3,1877.8l-14.1-13.6l24-24.8l-19.2-18.5l-24,24.8l-14.1-13.6
		l54.2-56.1l14.1,13.6l-19.8,20.6l19.2,18.5l19.8-20.6l14.1,13.6L701.3,1877.8L701.3,1877.8z M817.8,1918.6
		c-7.4,10.2-16,16.3-25.7,18.1s-19.3-0.7-28.8-7.5c-9.5-6.9-14.9-15.3-16-25.2c-1.1-9.9,2-19.8,9.2-29.9
		c7.4-10.2,15.9-16.2,25.6-18.1c9.7-2,19.3,0.6,28.9,7.5c9.5,6.9,14.9,15.2,16.1,25.1C828.3,1898.4,825.1,1908.4,817.8,1918.6
		L817.8,1918.6z M801.4,1906.7c2.7-3.7,4.7-7.3,5.8-10.5c1.1-3.2,1.7-6.2,1.6-8.8c0-2.4-0.7-4.9-1.9-7c-2.3-3.9-6.2-6.7-10.6-7.8
		c-2.4-0.5-4.9-0.3-7.3,0.4c-2.9,0.9-5.5,2.3-7.9,4.2c-2.8,2.1-5.5,5-8.2,8.9c-2.8,3.9-4.8,7.4-5.9,10.5c-1,2.8-1.6,5.7-1.5,8.7
		c0.1,2.7,0.7,5,1.9,7.1c1.1,2.1,2.7,3.6,4.5,5c1.9,1.3,4,2.2,6.4,2.7s4.8,0.3,7.3-0.5c2.8-0.9,5.4-2.3,7.8-4.1
		C795.8,1913.5,798.5,1910.6,801.4,1906.7L801.4,1906.7z M1008.2,1969.7l-47.5,64.9l-19.9-8l6.4-49.4l-29.3,40.2l-20-8l10.9-79.7
		l18.9,7.6l-9.6,52.5l31.8-43.5l18,7.3l-8.1,53.2l30.1-44.3L1008.2,1969.7L1008.2,1969.7z M1009.4,2051.6l44.5-69.3l20.7,5.1l6.7,82
		l-19.6-4.9l-0.9-16.6l-23.7-5.9l-8.6,14.3L1009.4,2051.6L1009.4,2051.6z M1060.1,2033.3l-1.5-26.9l-13.9,23L1060.1,2033.3
		L1060.1,2033.3z M1184.9,2085.8l-18.7-2.6l-22.2-58l-7.6,53.8l-17.7-2.5l10.8-77.3l23.8,3.4l18.4,47.7l6.3-44.3l17.7,2.5
		L1184.9,2085.8z M1247.3,2087.4l-2.2-63.1l-23.1,0.7l-0.5-14.9l65.7-2.3l0.6,14.9l-23.1,0.7l2.1,63.1L1247.3,2087.4L1247.3,2087.4z
		 M1352.9,2081.9c-5.9,0.8-11.2,1-15.8,0.5c-4.4-0.5-8.8-1.3-13.1-2.5l-2.6-18.4l1.8-0.3c4.3,2.7,9,4.7,13.8,5.8
		c5,1.1,9.5,1.3,13.9,0.7c1.1-0.2,2.5-0.5,4.4-0.9c1.5-0.4,2.9-0.9,4.2-1.8c1.2-0.7,2.3-1.8,3.1-3c0.8-1.3,1.1-2.9,0.7-4.4
		c-0.2-1.9-1.3-3.5-3-4.4c-1.8-1-3.7-1.7-5.8-1.9c-2.9-0.4-5.8-0.7-8.7-0.7c-2.9-0.2-5.8-0.6-8.7-1.1c-6.3-1.3-11-3.5-14.1-6.7
		c-3.1-3.2-5-7.5-5.8-12.8c-1-7.2,1.2-13.5,6.7-18.9c5.5-5.3,12.8-8.7,22-9.9c4.6-0.7,9.2-0.8,13.9-0.6c4.7,0.3,9,1,12.8,2.1
		l2.5,17.7l-1.7,0.3c-3.5-2.1-7.4-3.7-11.4-4.8c-5.8-1.5-11.9-1.4-17.7,0.3c-1.4,0.5-2.8,1.2-4.1,2.1c-1.1,0.7-2.1,1.8-2.8,2.9
		c-0.7,1.1-1,2.5-0.8,3.8c0.2,1.8,1.2,3.5,2.8,4.4c1.6,0.9,4.4,1.7,8.5,2l7.8,0.7c2.5,0.2,5.1,0.7,8,1.2c5.6,1.2,10,3.2,13.1,6.1
		c3.1,2.9,5,7,5.7,12.3c1.2,7.3-1.2,14.7-6.4,19.8C1371,2076.9,1363.1,2080.5,1352.9,2081.9L1352.9,2081.9z M1500.9,2047l-21.6-59.3
		l-21.7,7.8l-5-13.9l61.7-22.5l5,14l-21.7,7.8l21.6,59.3L1500.9,2047z M1624.2,1953.1c5.7,11.2,7.2,21.6,4.5,31.1
		c-2.7,9.5-9.3,16.9-19.8,22.2c-10.5,5.3-20.4,6.3-29.7,2.8c-9.2-3.5-16.7-10.7-22.4-21.8c-5.7-11.2-7.2-21.6-4.6-31.1
		c2.6-9.5,9.2-17,19.7-22.3c10.5-5.3,20.4-6.3,29.6-2.9C1611.1,1934.6,1618.5,1941.9,1624.2,1953.1z M1606.2,1962.3
		c-2.1-4.1-4.4-7.5-6.7-9.9c-2-2.2-4.4-4.1-7.1-5.4c-2.2-1.1-4.7-1.6-7.1-1.5c-2.2,0.1-4.5,0.7-6.5,1.7c-2.1,1-3.8,2.4-5.2,4.1
		c-1.5,2-2.5,4.2-3,6.6c-0.6,2.5-0.5,5.5,0.2,9c0.7,3.5,2.1,7.3,4.1,11.4c2.1,4.2,4.4,7.6,6.6,10c2.2,2.4,4.6,4.1,7.1,5.3
		c2.4,1.2,4.9,1.7,7.2,1.5c2.3-0.1,4.6-0.7,6.5-1.8c2.1-1,3.8-2.5,5.3-4.4s2.4-4.1,2.9-6.6c0.5-2.8,0.5-5.7-0.2-8.9
		C1609.8,1970.4,1608.4,1966.7,1606.2,1962.3L1606.2,1962.3z M1765,1875c2.4,3,4,6.2,4.8,9.3c0.7,3.2,0.7,6.4,0,9.4
		c-0.8,3.5-2.3,6.9-4.5,9.9c-2.1,3-5.2,6.2-9.4,9.5l-24.3,19.6l-49.1-60.6l21.4-17.4c4.5-3.6,8-6.2,10.6-7.7
		c2.6-1.6,5.3-2.5,8.1-3.1c3.2-0.6,6.1-0.3,8.7,0.7c2.6,1.1,5,2.9,7.1,5.4c2.4,3,3.8,6.2,4.2,9.7c0.4,3.5-0.3,6.8-2,10.1l0.3,0.3
		c4.4-2.2,8.7-3.1,12.9-2.4C1757.8,1868.6,1761.6,1870.9,1765,1875L1765,1875z M1725.3,1866c-0.8-1-2-1.9-3.2-2.4
		c-1.3-0.7-2.8-0.7-4.2-0.3c-1.5,0.5-2.9,1.2-4.1,2.1c-1.4,1.1-3.5,2.7-6.2,4.9l-1,0.8l10.4,12.8l1.9-1.6c2.6-2.1,4.4-3.6,5.4-4.6
		c1-0.9,2-2.1,2.5-3.5c0.7-1.3,0.9-2.9,0.7-4.4C1727.1,1868.5,1726.3,1867.1,1725.3,1866L1725.3,1866z M1749.1,1887.5
		c-1.5-1.9-3.1-3-4.7-3.5c-1.8-0.5-3.6-0.3-5.4,0.4c-1.6,0.6-3,1.4-4.3,2.5c-1.7,1.2-3.8,3-6.5,5.1l-2.8,2.2l12.3,15.2l0.8-0.7
		c4-3.2,6.6-5.4,8.1-6.7c1.5-1.2,2.7-2.9,3.7-4.9c0.8-1.5,1.2-3.4,0.8-5C1751,1890.5,1750.2,1888.8,1749.1,1887.5L1749.1,1887.5z
		 M1810.9,1865.8l-54.2-56.1l37.9-36.6l10.4,10.7l-23.9,23.1l9.5,9.8l22-21.3l10.4,10.7l-22,21.3l13.7,14.2l23.9-23.1l10.4,10.6
		L1810.9,1865.8L1810.9,1865.8z M1913.1,1753.7l-48.8-66.3l12.2-17.5l79,23.2l-11.6,16.5l-15.9-5l-14,20.1l10.3,13.2L1913.1,1753.7
		L1913.1,1753.7z M1914.1,1699.8l-25.6-8.2l16.4,21.3L1914.1,1699.8z"/>
	<path class="st6" d="M1250,373.6c241.4,0,460.5,98.5,619.3,257.2c158.7,158.8,257.2,377.9,257.2,619.3l0,0
		c0,241.4-98.5,460.4-257.2,619.3s-377.9,257.2-619.2,257.2l0,0c-241.4,0-460.4-98.5-619.3-257.2S373.6,1491.4,373.6,1250v-0.1
		c0-241.4,98.5-460.4,257.2-619.3C789.6,471.9,1008.6,373.6,1250,373.6L1250,373.6z M1250,383.1L1250,383.1
		c-238.8,0-455.5,97.3-612.5,254.4S383.1,1011.2,383.1,1250v0.1c0,238.8,97.3,455.4,254.4,612.5c157,156.9,373.8,254.3,612.5,254.3
		l0,0c238.7,0,455.4-97.3,612.5-254.4s254.4-373.8,254.4-612.5v-0.1c0-238.8-97.3-455.4-254.4-612.5
		C1705.5,480.4,1488.8,383.1,1250,383.1L1250,383.1z"/>
	<path class="st7" d="M948.4,594L948.4,594L948.4,594l20.9-9.5l52.6,66.9l68.1,115.5l66.8,113.3l83,160.6l83.3,180.6v0.1l0.1,0.2
		v0.1v0.1l0.1,0.1l0.1,0.1v0.1l0,0l0,0l0,0c22.6,49,44.7,98.4,66.2,148l20.6,47.6l19.3,46.2l17.7,44l91.8,227.7l46.8,165.5
		l-28.9,13.4l0,0h-0.1l-20.8,9.4l-52.6-66.9l-68.1-115.5l-66.8-113.3l-83-160.5l-83.3-180.7v-0.1l-0.1-0.2v-0.1l0,0l-0.1-0.2
		l-0.1-0.2v-0.1l0,0l0,0c-83.3-180.7-151.5-348.1-194.3-472.4l-43.6-126.8l-16.6-83.4L948.4,594L948.4,594L948.4,594L948.4,594z
		 M952.4,602.6L952.4,602.6L952.4,602.6c-15.6,7.4,2.6,86.5,44.5,208.2l42.7,124.1l68,167.1l83.1,180.3v0.1l0.1,0.2v0.1v0.1l0.1,0.1
		l0.1,0.1v0.1l0,0l0,0l0,0l0,0c83.1,180.3,166.1,340.5,232.7,453.6l65.4,110.9l48.4,65.2l15.7-7.1l23.6-10.9l-48.4-160.7
		l-89.9-222.7l-17.6-43.5l-19.3-46.1l-20.7-48l-20.7-47.9l-22-49.5l-23.3-50.4v-0.1l-0.1-0.2v-0.1l0,0l-0.1-0.2l-0.1-0.2v-0.1
		c-83.1-180.3-166.1-340.5-232.7-453.6l-65.4-110.9l-48.4-65.2L952.4,602.6L952.4,602.6z M1191.1,1283.2L1191.1,1283.2
		L1191.1,1283.2L1191.1,1283.2 M1191.1,1283.1C1191.1,1283.2,1191.1,1283.2,1191.1,1283.1 M1182.1,1286.3L1182.1,1286.3"/>
	<path class="st7" d="M1192.6,529.7h0.3l0,0l0,0l0,0c2.7-0.1,5.3,0.7,8,2.2l2.2,1.4l2.2,2.1l2.2,2.7l10.1,12.2l10.7,27.4l10.8,39.7
		v0.1l0,0l4.6,16.9l4.7,19.2l4.7,21.3l4.6,21l4.7,23.3l4.7,25.3l23.8,129.3l22.8,177.8l16.3,196.2v0.5v0.5l0.1,1l0,0l16.3,197.5
		l6.7,180.1l-2.3,131.3l-2.3,133.5l-12.8,84l-22.6,2.6l0,0l-0.7,0.1h0.3h-0.1l0,0h0.1h-0.4h-0.1c-22.7,1.1-49.1-79.6-73.5-210.8
		l-23.9-129.2l-23.1-178.7l-16.4-197.4l0,0v-0.2l-0.1-0.8l-0.1-0.8v-0.5v-0.5l-0.1-1l0,0l0,0 M1193.5,539.2h-0.2H1193.5
		L1193.5,539.2L1193.5,539.2L1193.5,539.2L1193.5,539.2L1193.5,539.2L1193.5,539.2L1193.5,539.2z M1193.6,539.2L1193.6,539.2
		L1193.6,539.2L1193.6,539.2L1193.6,539.2L1193.6,539.2L1193.6,539.2h-0.2l-17.1,1.9l-10,80.5L1164,750l-2.3,130.8l6.7,179.7
		l16.3,197.4l0,0v0.3l0.1,0.8l0.1,0.8v0.5v0.4l0.1,1l16.4,197.5l23,178.4l23.8,128.5l23.4,126.3l23.1,77.7l17.2-0.9l0,0h0.1l0,0h0.3
		h-0.3h0.1l0,0l0,0l0,0l0,0h-0.1h0.1l0,0l0,0l0,0h0.1l17.1-1.9l10-80.5l2.3-128.4l2.3-130.8l-6.7-179.7l-16.3-197.4v-0.3l-0.1-0.8
		l-0.1-0.8l-16.3-196.3l-22.8-177.4L1258,746.3l-4.6-24.8l-4.7-23.2l-4.7-21.3l-4.6-21l-4.6-19.1l-4.6-16.8l0,0V620l0,0l-10.5-38.5
		l-10.1-26.2l-9.2-11.1l-1.5-1.9l-1.5-1.4l-1.4-0.8l-0.9-0.6l-0.8-0.3L1193.6,539.2L1193.6,539.2z M1193.6,539.2
		C1193.7,539.1,1193.6,539.1,1193.6,539.2z M1312.1,1969.2C1312,1969.2,1311.9,1969.2,1312.1,1969.2z M1175.2,1258.7
		c-16.3-197.5-23.1-377.6-20.7-508.8l2.3-133.5l12.8-84l22.6-2.6l0,0l0.6-0.1h-0.3h0.1"/>
	<path class="st7" d="M1444.3,552.8L1444.3,552.8L1444.3,552.8l22.1,6.3l-2.7,85l-22.1,132.2L1419.8,906l-39.6,176.3l-52.3,191.7
		l0,0l-0.2,0.6c-0.1,0.2-0.1,0.4-0.1,0.6v0.1l-52.4,191.8l-55.4,172l-47.2,122.7l-48.1,125.1l-40.9,74.5l-22.1-5.8l0,0h-0.1h-0.1
		l0,0l-22-6.2l2.7-85l22.1-132.2l21.8-129.8l39.6-176.3l52.3-191.8l0,0l0.1-0.6l0,0c0,0.1,0,0.1,0,0 M1441.8,562.1L1441.8,562.1
		L1441.8,562.1c-16.7-4.3-53.7,67.9-99.9,188l-47.1,122.4l-55.3,171.6l-52.3,191.5l0,0l-0.2,0.6l0,0l0,0v0.2v-0.2
		c0,0.1,0,0.2-0.1,0.6v0.1l-52.3,191.5l-39.5,176l-21.7,129.4l-21.2,126.9l-4.9,81l16.5,4.8l0,0h0.1l0,0l0,0
		c16.6,4.3,53.6-68,99.8-188l47.1-122.5l55.3-171.6l52.3-191.5l0,0c0.1-0.3,0.1-0.5,0.2-0.7c0,0.1,0,0.1,0,0l0,0l0,0v0.1l0,0
		c0-0.1,0.1-0.3,0.2-0.6v-0.1l52.3-191.6l39.5-175.9l21.7-129.4l21.2-126.9l4.9-81L1441.8,562.1L1441.8,562.1z M1327.7,1274.7
		C1327.7,1274.6,1327.8,1274.6,1327.7,1274.7L1327.7,1274.7L1327.7,1274.7L1327.7,1274.7 M1327.7,1274.7L1327.7,1274.7
		L1327.7,1274.7z M1327.7,1274.7L1327.7,1274.7L1327.7,1274.7z M1327.7,1274.8L1327.7,1274.8z M1327.7,1274.8L1327.7,1274.8
		L1327.7,1274.8L1327.7,1274.8C1327.6,1275,1327.7,1274.9,1327.7,1274.8L1327.7,1274.8L1327.7,1274.8 M1327.7,1274.8L1327.7,1274.8
		L1327.7,1274.8z M1327.7,1274.8L1327.7,1274.8L1327.7,1274.8z M1327.7,1274.8L1327.7,1274.8L1327.7,1274.8z M1327.7,1274.8
		L1327.7,1274.8L1327.7,1274.8z M1318.6,1272.1L1318.6,1272.1L1318.6,1272.1C1318.6,1272,1318.6,1272,1318.6,1272.1L1318.6,1272.1
		L1318.6,1272.1L1318.6,1272.1L1318.6,1272.1z M1318.6,1272L1318.6,1272L1318.6,1272C1318.6,1272,1318.7,1272,1318.6,1272
		L1318.6,1272C1318.7,1272,1318.7,1272,1318.6,1272z M1318.6,1272L1318.6,1272L1318.6,1272z M1318.6,1272L1318.6,1272L1318.6,1272z
		 M1318.6,1272L1318.6,1272 M1318.6,1272.1C1318.6,1272.2,1318.6,1272.2,1318.6,1272.1z M1327.7,1274.8L1327.7,1274.8
		 M1327.7,1274.7C1327.7,1274.6,1327.7,1274.6,1327.7,1274.7 M1177.9,1233.7L1177.9,1233.7L1177.9,1233.7l0.2-0.6v-0.1l52.4-191.8
		l55.5-172l47.2-122.7l48.1-125.1l40.9-74.5l22.1,5.9l0,0h0.1L1177.9,1233.7z M1177.9,1233.7L1177.9,1233.7L1177.9,1233.7z
		 M1177.9,1233.7L1177.9,1233.7L1177.9,1233.7z M1177.9,1233.7L1177.9,1233.7L1177.9,1233.7L1177.9,1233.7L1177.9,1233.7
		L1177.9,1233.7 M1177.9,1233.6C1178,1233.5,1178,1233.5,1177.9,1233.6L1177.9,1233.6z M1177.9,1233.7L1177.9,1233.7z
		 M1177.9,1233.7L1177.9,1233.7z M1177.9,1233.7L1177.9,1233.7z M1177.9,1233.7L1177.9,1233.7L1177.9,1233.7z M1177.9,1233.7
		L1177.9,1233.7z M1187,1236.3L1187,1236.3L1187,1236.3z M1187,1236.3L1187,1236.3z M1187,1236.4L1187,1236.4L1187,1236.4z
		 M1187,1236.4L1187,1236.4L1187,1236.4z M1187,1236.4L1187,1236.4z M1187,1236.5L1187,1236.5z M1187,1236.5
		C1186.9,1236.5,1186.9,1236.5,1187,1236.5z M1187,1236.5L1187,1236.5L1187,1236.5z M1187,1236.5L1187,1236.5L1187,1236.5z
		 M1187,1236.3C1187,1236.2,1187,1236.2,1187,1236.3z M1177.9,1233.7C1177.9,1233.8,1177.9,1233.8,1177.9,1233.7z"/>
	<path class="st7" d="M1672.6,660.6L1672.6,660.6C1672.7,660.6,1672.7,660.7,1672.6,660.6L1672.6,660.6c0.3,0.2,0.4,0.3,0.7,0.6
		c17.6,14.4-14.1,92.9-79.5,208.6c-64.8,114.5-162.4,266.7-277.4,429.1l0,0v0.1l0,0c-0.2,0.3,0,0-0.1,0.1c0.1-0.1,0,0-0.2,0.3
		l-0.1,0.1c-31.2,44.1-63,87.9-95.2,131.2c-29.7,40-59.9,79.6-90.6,118.9c-151.1,193-271.1,316.2-297.2,298.3l0,0l0,0l0,0l0,0l0,0
		l0,0l-0.3-0.3c-17.7-14.8,13.8-93.3,79.2-208.8c64.8-114.5,162.4-266.7,277.4-429.1c0.3-0.5,0-0.1,0.1-0.2l0.2-0.3l0.1-0.1
		c31.2-44.1,63-87.9,95.2-131.2c29.7-40,60-79.6,90.6-118.9C1526.5,765.9,1646.5,642.8,1672.6,660.6 M1667.4,668.6L1667.4,668.6
		L1667.4,668.6c-21.4-15.1-136.4,107.1-284.4,296.1c-30.6,39.2-60.8,78.7-90.4,118.7c-32.1,43.3-63.8,87-95,131.1
		c-0.4,0.5,0,0-0.2,0.3c0.1-0.1,0.1-0.2-0.1,0.3l-0.1,0.1c-114.8,162.3-212.2,314.1-276.9,428.3c-63.3,111.8-95.6,186.2-81.8,196.5
		l0.1,0.1c21.3,15,136.3-107.1,284.4-296.2c29.1-37.1,59.3-76.8,90.4-118.7c30.8-41.4,62.6-85.3,95-131.1c0.2-0.3,0.2-0.3,0.1-0.2
		l0.2-0.3l0.1-0.1c114.8-162.2,212.2-314.1,276.9-428.2C1648.8,753.2,1681.1,678.9,1667.4,668.6L1667.4,668.6z M1316.4,1298.9
		L1316.4,1298.9 M1316.2,1298.9L1316.2,1298.9L1316.2,1298.9z M1308.5,1293.6L1308.5,1293.6L1308.5,1293.6z M1308.4,1293.6
		L1308.4,1293.6L1308.4,1293.6z M1308.4,1293.7L1308.4,1293.7C1308.4,1293.7,1308.3,1293.7,1308.4,1293.7z M832.6,1847.5l0.3,0.3
		c-0.2-0.2-0.4-0.3-0.6-0.5L832.6,1847.5L832.6,1847.5z M1189.4,1209.5L1189.4,1209.5L1189.4,1209.5L1189.4,1209.5
		C1189.5,1209.3,1189.6,1209.3,1189.4,1209.5L1189.4,1209.5 M1197.1,1214.8L1197.1,1214.8"/>
	<path class="st7" d="M1850.6,840.4L1850.6,840.4L1850.6,840.4c4.3,6.4,2.1,16.3-5.8,29.1l-7.1,11.5l-11.9,14.5l-16.2,17.1
		l-82.1,86.8l-194.8,155.5l-235.6,163.2l-0.4,0.3l0,0c-44.4,30.7-89.1,61-134.2,90.8l-43.3,28.4l-42.1,27l-40.4,25.2l-208.3,129.8
		l-155,74.7l-18.1-26.2l-0.1-0.1l0,0c-4.3-6.4-2.1-16.3,5.8-29.1l7.1-11.5l11.9-14.5l16.2-17.1l82.2-86.8l194.8-155.6l235.7-163.2
		l0.3-0.2l-1,0.7l1-0.7l0,0c44.4-30.7,89.1-61,134.2-90.7l43.3-28.5l42.1-27l40.4-25.2l208.4-129.8l155-74.7L1850.6,840.4
		L1850.6,840.4L1850.6,840.4z M1842.6,845.7L1842.6,845.7c-15.1-21.2-164.9,54.3-368.5,181.1l-39.7,24.8l-42,27l-43.8,28.9l-44,29
		l-44.9,30.4l-45.2,31.3l-0.1,0.1l-0.1,0.1l-0.1,0.1l-0.1,0.1h-0.1h-0.1l0,0c-234.9,162.7-429.1,317.8-510.8,404.1l-15.7,16.6
		l-11.5,14l-6.7,10.9l-5.9,9.4l-2.1,6.4l2,2.9l0,0l0,0c15.1,21.2,165-54.3,368.5-181.1l39.7-24.8l42-27l43.8-28.9l44-29l44.9-30.4
		l45.2-31.3l0.1-0.1l0.3-0.2l0.2-0.1h0.1l0,0l0,0c234.9-162.7,429-317.7,510.7-404l15.7-16.6l11.5-14l6.7-10.9l5.9-9.4l2.1-6.4
		L1842.6,845.7L1842.6,845.7L1842.6,845.7z M1297.1,1318L1297.1,1318L1297.1,1318L1297.1,1318L1297.1,1318 M1291.7,1310.3
		L1291.7,1310.3l0.2-0.1h0.1C1291.8,1310.2,1291.7,1310.3,1291.7,1310.3L1291.7,1310.3z M1213.8,1198.3L1213.8,1198.3L1213.8,1198.3
		"/>
	<path class="st7" d="M1956,1069.8L1956,1069.8L1956,1069.8l5.6,22.2l-75,40.1l-125.6,46.8l-123.2,46l-172.5,53.7l-192.2,50.4l0,0
		l-0.7,0.2h0.1l0,0l-0.4,0.1h-0.1h-0.2l0,0c-52.2,13.7-104.7,26.8-157.2,39.3l-50.4,12l-48.9,10.9l-46.5,9.8L728.7,1452l-171,17.1
		l-8-30.7l0,0v-0.1l-5.6-22.1l75-40.1l125.6-46.8l123.2-46l172.5-53.7l192.2-50.4l0,0l0.7-0.2h-0.1l0,0l0.4-0.1h0.1h0.2l0,0
		c52.2-13.7,104.7-26.8,157.2-39.3l50.4-12l48.9-10.9l46.5-9.8l240.1-50.6l171-17.1L1956,1069.8L1956,1069.8z M1946.9,1072.2
		L1946.9,1072.2l-6.6-25.2l-166.6,19.6l-234.8,49.5l-45.9,9.7l-48.8,10.9l-50.9,12.1l-51.1,12.1l-52.6,13.2l-53.4,14l0,0l-0.7,0.2
		h0.1l0,0l-0.4,0.1h-0.1h-0.2l0,0c-192,50.4-364.1,104-487.1,149.8l-120.6,44.9l-72.6,36.2l4.2,16.7l0,0l6.6,25.2l166.6-19.6
		l234.8-49.5l45.9-9.6l48.8-10.9l50.9-12.1l51.1-12.1l52.6-13.2l53.4-14l0,0l0.7-0.2h-0.1h0.1l0.4-0.1h0.1h0.2l0,0
		c192-50.4,364.1-104,487.1-149.8l120.6-45l72.7-36.2L1946.9,1072.2z"/>
	<path class="st7" d="M1976.7,1321.6c0,0.1,0,0.3,0,0.4l-0.9,7.6l-8.1,6.2l-14.5,4.7l-12.9,4.2l-18.6,3.5l-23.4,2.6l-118.8,13.5
		l-248.1-6.2l-284.2-26.3c1.2,0.1,1.7,0.2-3-0.3l0,0l-197.7-18.4l-178.5-24.8l-128.7-25.2l-131.1-25.7l-80.4-27.3l1.4-22.7l0,0l0,0
		v0.1 M1967.2,1320.8L1967.2,1320.8L1967.2,1320.8C1967.2,1320.9,1967.1,1321,1967.2,1320.8v-0.2l1.2-17.2l-77.5-23.9l-126.1-24.8
		l-128.6-25.2l-178.2-24.8l-197.1-18.4l0,0l-7.9-0.7l10.5,0.9l-4.3-0.4L975,1159.7l-247.9-6.2L608.5,1167l-22.8,2.6l-17.9,3.3
		l-12.3,4l-10.7,3.5l-5.9,3.5l-0.5,3.5v0.2l-1.2,17.2l77.5,23.9l126.1,24.7l128.6,25.2l178.2,24.8l197.1,18.4l0,0l7.9,0.7l-10.5-0.9
		l4.3,0.4l284.1,26.4l247.9,6.2l118.5-13.4l22.8-2.6l17.9-3.3l12.3-4l10.7-3.5l5.9-3.5L1967.2,1320.8L1967.2,1320.8z M1967.2,1320.8
		L1967.2,1320.8 M528.9,1187.1c0-0.1,0,0,0-0.3c0-0.1,0-0.3,0-0.4l0.9-7.6l8.1-6.2l14.5-4.7l12.9-4.2l18.6-3.5l23.4-2.6l118.8-13.5
		l247.9,6.1l284,26.3c-0.8-0.1-0.7-0.1,3.4,0.3l0,0l197.7,18.5l178.5,24.8l128.7,25.2l131.2,25.7l80.5,27.3l-1.6,22.8
		c0,0.1,0,0,0,0.3l0,0 M538.4,1187.7L538.4,1187.7 M538.4,1187.7C538.4,1187.8,538.4,1187.8,538.4,1187.7 M538.5,1187.7
		L538.5,1187.7L538.5,1187.7z M538.5,1187.6L538.5,1187.6L538.5,1187.6z M1258.4,1176.7h0.3H1258.4z M1967.2,1320.7L1967.2,1320.7
		L1967.2,1320.7"/>
	<path class="st7" d="M1910,1565.1L1910,1565.1L1910,1565.1z M1910,1565.1L1910,1565.1L1910,1565.1z M1910,1565L1910,1565L1910,1565
		z M1910,1565C1910.1,1564.9,1910.1,1565,1910,1565l-0.1,0.3l-3.4,7l-9.6,3.1l-15.1-0.5l-13.5-0.4l-18.5-3.1l-22.9-5.5l-116.2-27.8
		l-232-91l-259-122.7l0,0l-0.2-0.1h0.1l-0.1-0.1h-0.1l-50.5-23.9l-48.8-23.8l-46.4-23.4l-46.2-23.3l-44.5-23.1l-42-22.5l-216-115.4
		l-142-96.6l12.8-29c0,0.1,0,0.1,0,0l0.1-0.3l0,0c3.4-6.9,13-10,28.1-9.5l13.5,0.4l18.5,3.1l22.9,5.5L795,970.4l232,91.1l259,122.7
		l0,0l0.2,0.1h-0.1h0.2h0.1l50.5,23.9l48.8,23.8l46.4,23.4l46.2,23.3l44.5,23l42,22.5l215.8,115.3l141.9,96.7L1910,1565L1910,1565z
		 M1901.3,1561.3L1901.3,1561.3L1901.3,1561.3l0.1-0.2c10.8-23.7-129.4-115.8-341-228.8l-41.3-22l-44.4-23l-46.9-23.5l-46.7-23.4
		l-48.7-23.7l-50.1-23.7l-0.4-0.2l0,0l0,0l0,0c-258.5-122.4-489.8-213.1-605.5-240.8l-22.2-5.3l-17.8-3l-12.8-0.4l-11.1-0.4
		l-6.6,1.3l-1.5,3.2v0.1l0,0c-10.9,23.6,129.3,115.7,340.9,228.8l41.3,22l44.4,23l46.9,23.5l46.7,23.4l48.7,23.7l50.1,23.7l0.4,0.2
		l0,0l0,0l0,0c258.5,122.4,489.8,213.1,605.5,240.8l22.2,5.3l17.8,3l12.8,0.4l11,0.3l6.6-1.3L1901.3,1561.3L1901.3,1561.3z
		 M1901.3,1561.3L1901.3,1561.3 M1901.3,1561.3L1901.3,1561.3 M595.6,943.4l0.1-0.2C595.7,943.3,595.6,943.3,595.6,943.4z
		 M595.7,943.1L595.7,943.1L595.7,943.1z M595.7,943L595.7,943z"/>
	<path class="st7" d="M1763.8,1771.4L1763.8,1771.4L1763.8,1771.4c-5.6,5.4-15.7,5-29.7-0.6c-12.5-5-28.9-14.2-48.5-27.2
		c-99.7-66-286.5-230.9-488-434.8l0,0c-0.1-0.1,0.1,0.1-0.3-0.3c-139.8-141.5-260.9-275.8-343.5-378.1
		c-84.2-104.3-128.3-177-112-193.3l0,0l0,0l0,0l0,0c5.5-5.4,15.6-5,29.7,0.6c12.5,5,28.9,14.2,48.5,27.2
		c99.7,66,286.6,230.9,488,434.8l0.1,0.1l0,0c31.4,31.8,62.5,63.8,93.2,96.1c29,30.5,57.5,61.1,85.8,92.1
		c140.2,153.5,241.6,281.1,271.3,342.2l0,0l0.1,0.1l0,0c1.2,2.5,2.3,5,3.5,7.6c1.1,2.6,2,4.9,2.7,6.9
		C1769,1757.2,1768.9,1766.3,1763.8,1771.4z M1757.1,1764.6L1757.1,1764.6L1757.1,1764.6c2.2-2.2,1.8-7.9-1.3-16.7
		c-0.7-2.1-1.5-4.2-2.4-6.4c-0.8-2.1-2-4.6-3.2-7.1l-0.1-0.1l0,0c-29.2-60.3-130-187.1-269.7-339.9c-28.3-30.9-56.9-61.6-85.8-91.9
		c-30.7-32.3-61.7-64.4-93.1-96l0,0l-0.1-0.1l0,0c-201-203.5-387.3-368-486.5-433.5c-19.1-12.6-34.8-21.5-46.7-26.2
		c-10.3-4.1-17-5.1-19.5-2.7l0,0l0,0l0,0l0,0c-12.2,12.1,31.9,80.3,112.7,180.7c82.5,102.2,203.4,236.2,342.9,377.5l0,0
		c0,0.1,0.1,0.1,0.1,0.1l0,0c0,0-0.1-0.1,0,0l0,0c201,203.5,387.3,368,486.5,433.5c19.1,12.6,34.8,21.5,46.7,26.2
		C1747.9,1766,1754.5,1767.1,1757.1,1764.6z M1204.3,1302.1L1204.3,1302.1z"/>
	<path class="st7" d="M1769.5,742.8L1769.5,742.8l2,2.1l1.2,2.5l0.6,3.1l0.4,2.6l-0.1,3.1l-0.7,3.5l-2.8,15.6l-14.1,25.9l-23.5,34
		l0,0l-0.1,0.1l-9.9,14.3l-11.8,15.9l-13.4,17.3l-13.4,17.3l-14.9,18.6l-16.3,19.6l-83.7,101.1l-121.6,131.7l-140.1,138.6l0,0l0,0
		l0,0l-26.1,25.8l-25.7,25.1l-25.2,24.3l-25.4,24.4l-24.9,23.5l-24.3,22.6l-125.6,116.9l-111,93.6l-75.8,53.6l0,0h-0.1l-7.6,5.3
		l-7.4,5l-7.2,4.8l-7,4.7l-6.6,4.2l-6.2,3.7l-33.6,20.4l-22.8,7l-8.8-8.9l0,0l0,0l0,0l-2.1-2.1l-1.2-2.9l-0.4-3.5l-0.3-3l0.3-3.5
		l0.9-4l4.4-18.5l18.6-31.5l30.1-41.3l0,0l10.6-14.6l12.2-16l13.6-17.3l13.7-17.3l14.9-18.2l16-19l82.9-98.6l115.6-124.6
		l132.2-130.8l0,0l0.1-0.1l0,0l31.7-31.3l31.2-30.3l30.5-29.1l30.5-29.1l29.9-28l29-26.6l149.4-137l125.6-100.8l64.5-34.5l0.1-0.1
		l0.2-0.1h0.1h0.1l0,0l0,0l0,0l0,0l0,0l0,0l0,0l0,0l0,0l0,0l0,0l0,0 M1762.8,749.5L1762.8,749.5L1762.8,749.5c-2.6-2.7-9.8-1.6-21,3
		l-2.3,0.9l-2.6,1.2l-2.9,1.4l-3,1.4l-3,1.5l-2.9,1.5l-0.2,0.1l1.3-0.7l-1.4,0.7l0,0c-63.8,34.2-188.5,134.4-337.2,270.9l-29,26.6
		l-29.9,27.9l-30.5,29.1l-30.5,29.2l-31.2,30.3l-31.4,31.1l-0.1,0.1l0,0l-131.7,130.4l-115.6,124.3l-82.9,98.5l-16.3,19.3
		l-14.9,18.1l-13.3,16.7L817,1630l-12.1,15.9l-10.7,14.8l0,0l0,0l-29.4,40.4l-18,30.3l-4.1,17.2l-0.7,3l-0.3,2.4l0.2,1.9l0.2,1.3
		l0.4,1l0.6,0.7l0,0l0,0l0,0c5.2,5.2,24-2.1,53.5-20l6.2-3.7l6.5-4.1l6.8-4.6l6.7-4.5l7.3-5l7.8-5.6l0,0h0.1l0,0l75.5-53.4
		l110.7-93.3l125.2-116.5l24.5-22.7l24.9-23.5l25.2-24.2l25.4-24.4l25.7-25l25.9-25.6l0,0l0,0l0,0l139.7-138.3l121.3-131.4l83.5-101
		l16.3-19.7l14.8-18.5l13.2-17l13.1-17l11.6-15.8l10-14.4l0,0l0,0l0.1-0.1l22.9-33l13.6-24.7l2.5-14.2l0.5-2.3l0.1-2l-0.3-1.6
		l-0.2-1.1l-0.3-0.8L1762.8,749.5L1762.8,749.5z M1769.4,742.8L1769.4,742.8 M1721,751.7c3.3-1.8,6.2-3.2,8.8-4.5l2.9-1.3l2.8-1.2
		l2.7-1.1l15-6.1l10.6-0.5l5.6,5.7"/>
	<path class="st7" d="M1904.7,954.4L1904.7,954.4l-7.3-15.6l-79.1,18.1l-121.8,41.8l-124.2,42.6l-167.2,67.9l-180.3,83h-0.1
		l-0.2,0.1h-0.1l0,0l-0.2,0.1l-0.2,0.1h-0.1l0,0c-180.4,83-340.7,165.7-453.9,232.2L659,1490l-65.2,48.3l7.1,15.7 M1913.2,950.4
		L1913.2,950.4L1913.2,950.4l13.3,28.9l-143.1,95.4l-217.8,113.2l-41.9,21.9l-44.7,22.5l-46.9,22.9l-46.5,22.7l-49,23.3l-51,23.4
		l0,0l-0.2,0.1h-0.1l0,0l-0.2,0.1l-0.2,0.1h-0.1l0,0C1104,1408,936.5,1476,812.2,1518.7l-126.9,43.5l-83.4,16.5l-9.7-20.7l0,0l0,0
		l0,0l0,0l-9.4-20.8l66.9-52.5l115.6-68l113.4-66.7l160.7-83l180.7-83.1l0,0l0.2-0.1h0.1l0,0l0.2-0.1l0.2-0.1h0.1
		c180.8-83.1,348.3-151.1,472.6-193.8l126.9-43.5l83.4-16.5L1913.2,950.4L1913.2,950.4L1913.2,950.4z M601,1554l7.3,15.6l79.1-18.1
		l121.8-41.8l124.2-42.6l167.2-67.9l180.3-83l0,0l0.2-0.1h0.1l0,0l0.2-0.1l0.2-0.1h0.1l0,0c49-22.5,97.8-45.7,146.3-69.3l46.8-22.9
		l44.7-22.5l41.9-21.8l213-110.8l141.2-90.6l-10.8-23.7"/>
	<path class="st7" d="M1067.7,551.2L1067.7,551.2L1067.7,551.2l7.6-2l8.6,5.4l9.4,11.9l8.3,10.6l9.5,16.2l10.6,21l53.5,106.9
		l79.8,236.1l73,277.2l0.1,0.3l0.1,0.3v0.1l0,0l0,0c13.7,52.2,26.9,104.6,39.4,157.2l12.1,50.6l11,48.8l9.8,46.4l50.9,240.1
		l17.3,171l-30.7,8.1h-0.1l0,0l-7.5,1.9l-8.5-5.4l-9.4-11.9l-8.3-10.6l-9.5-16.2l-10.6-21l-53.5-106.9l-79.8-236.1l-73-277.2
		l-0.1-0.3l-0.1-0.3l0,0c-50.5-192.2-88.6-368.8-109.1-498.7l-20.9-132.3l-2-85L1067.7,551.2L1067.7,551.2L1067.7,551.2
		L1067.7,551.2z M1070.2,560.3L1070.2,560.3L1070.2,560.3l-0.2,0.1l0,0c-16.4,5-12.3,85.8,7.8,212.7l20.5,129.6l37.9,176.3l50.5,192
		v0.1l0.1,0.4v0.1v0.1l72.8,276.4l79.5,235.4l53.2,106.4l10.3,20.5l9.2,15.6l8,10.1l6.9,8.8l5.3,4.2l3.5-0.8l0,0l0,0l0,0l25.2-6.6
		l-19.8-166.6l-49.7-234.8l-9.7-46l-10.9-48.8l-12.1-50.8l-12.2-50.9l-13.2-52.6l-14.1-53.5v-0.1l-0.1-0.5v-0.1v-0.1l-72.8-276.5
		l-79.5-235.4l-53.2-106.4l-10.2-20.5l-9.2-15.6l-7.9-10.1l-6.9-8.8l-5.3-4.2L1070.2,560.3L1070.2,560.3L1070.2,560.3z"/>
	<path class="st7" d="M1319.6,530.2h0.3h0.1l7.6,0.9l6.2,8.1l4.8,14.5l4.2,12.9l3.5,18.5l2.7,23.4l13.5,118.8l-5.9,248.3
		l-26.2,284.4c0.1-1.1,0.2-1.6-0.2,2.7l0,0l-18.2,197.6l-24.7,178.5l-25.1,128.7l-25.6,131.2l-27.2,80.5l-22.8-1.6l0,0
		c-0.2,0,0,0-0.3,0h-0.1h-0.2h-0.1l-22.6-2.8l-12.1-84.1l-1.2-133.6l-1.1-131l8.3-179.6l18.1-197.2l0.3-2.8l0.3-3.4l-0.9,10l0.7-8.4
		l0,0l18.2-197.6l24.7-178.5l25.1-128.7l25.6-131.2l27.2-80.5l22.8,1.6c0.2,0,0,0,0.3,0L1319.6,530.2L1319.6,530.2z M1318.7,539.8
		L1318.7,539.8L1318.7,539.8z M1329.3,556.8l-3.5-10.6l-3.5-5.9l-3.5-0.5h-0.2l-17.2-1.2l-23.8,77.5l-24.5,126.1l-25,128.6
		l-24.7,178.2l-18.2,197.1l0,0l-0.7,7.2l0.8-9.9l-0.4,4.5l-0.3,2.8l-18,196.6l-8.3,179.4l1.1,130.9l1.1,128.4l9.2,80.5l17.1,2.1h0.2
		l17.2,1.2l23.8-77.5l24.6-126.1l25-128.6l24.7-178.2l18.2-197.1l0,0l0.7-7.2l-0.8,9.9l0.4-4.5l26.2-284.2l5.9-248l-13.5-118.5
		l-2.6-22.8l-3.3-17.9L1329.3,556.8L1329.3,556.8z"/>
	<path class="st7" d="M1559.2,605.4L1559.2,605.4c-0.1,0-0.1-0.1-0.2-0.1l0,0l0,0c-15.7-7.1-64.6,57.6-131,167.9l-67.6,112.5
		l-84.4,159.5l-84.7,179.5l-0.2,0.4l0,0l0,0l-0.1,0.2v-0.1l-0.1,0.1v0.1l-84.8,179.5l-69.6,166.5l-43.8,123.8l-43,121.3l-18.9,78.9
		l15.5,7.5l0,0h0.1c23.7,10.8,115.6-129.5,228.5-341.2l22-41.3l23-44.4l23.5-47l23.4-46.7l23.7-48.8l23.6-50.1l0.2-0.4l0,0l0,0
		l0.1-0.2v0.1v-0.1v-0.1l84.9-179.5l69.5-166.5l43.8-123.7l43-121.3l18.9-78.9L1559.2,605.4L1559.2,605.4z M1559.2,605.4
		L1559.2,605.4 M1559.1,605.3L1559.1,605.3z M1563.1,596.7L1563.1,596.7L1563.1,596.7L1563.1,596.7L1563.1,596.7L1563.1,596.7
		c20.7,10.1,3.3,93.3-41.5,219.6l-43.9,124l-69.7,166.7l-84.9,179.8l0,0l0,0l0,0l0,0 M1563.2,596.7L1563.2,596.7 M1323.2,1287
		l-0.2,0.4l-0.1,0.2v-0.1l-0.1,0.1v0.1l-23.9,50.6l-23.7,48.8l-23.3,46.4l-23.2,46.2l-23,44.5l-22.4,42l-115.2,216.1l-96.6,142
		l-29-12.7c0.1,0,0.1,0,0,0l-0.3-0.1l0,0l0,0h-0.1c-20.6-10-3.2-93.2,41.6-219.5l43.9-124l69.7-166.7l84.9-179.8l0.2-0.4l0,0l0,0
		l0.1-0.2v0.1l0.1-0.1v-0.1l84.9-179.9l84.5-159.8l67.8-112.7l69.1-114.9l53.2-66.3l20.7,9.7 M942.7,1911.7L942.7,1911.7
		L942.7,1911.7z M946.4,1903L946.4,1903"/>
	<path class="st7" d="M1977.4,1194.8L1977.4,1194.8c0,0,0,0.1,0,0.3l0.4,7.7l-6.9,7.5l-13.5,7.2l-12,6.4l-17.7,6.6l-22.6,6.7
		l-114.9,34l-246.1,37.2l-285.1,23.4l0,0l-2,0.2l-55.3,4.5l-54.1,3.7l-52.2,3.1l-51.8,3l-50,2.2l-47.3,1.6l-244.7,8l-171-12.9
		l-2.6-31.7l0,0v0.1v-0.4l-0.4-7.7l6.9-7.5l13.5-7.2l12-6.4l17.7-6.5l22.6-6.7l114.9-34l246.1-37.2l285.1-23.4l0,0l0,0
		L1977.4,1194.8z M1967.9,1195.5C1967.9,1195.4,1967.9,1195.5,1967.9,1195.5z M1967.9,1195.5
		C1967.9,1195.6,1967.9,1195.6,1967.9,1195.5l-2.1-25.9l-166.9-9.6l-239.3,7.9l-47,1.6l-49.9,2.2l-52,3l-51.8,3l-54,3.7l-55.7,4.6
		h-0.2l-0.9,0.1l-0.8,0.1l0,0l-284.6,23.4l-245.4,37l-114.2,33.8l-22,6.5l-17,6.4l-11.4,6.1l-9.9,5.3l-5.1,4.5l0.2,3.6v0.1
		c0,0,0-0.1,0,0l0,0l2.1,25.9l167,9.6l239.3-7.9l47-1.6l49.9-2.2l52-3.1l51.8-3l54-3.7l55.7-4.6h0.2l0.9-0.1l0.8-0.1l0,0l284.6-23.4
		l245.4-37l114.2-33.8l22-6.5l17-6.4l11.4-6.1l9.9-5.3l5.1-4.5L1967.9,1195.5L1967.9,1195.5L1967.9,1195.5z M1259.2,1331.6
		L1259.2,1331.6 M537.7,1312.9L537.7,1312.9L537.7,1312.9z M537.7,1312.9C537.7,1313,537.7,1313,537.7,1312.9z M1246.5,1176.8
		c0.7-0.1,1.3-0.1,2-0.2l55.2-4.5l54.1-3.7l52.2-3.1l51.9-3l50-2.3l47.3-1.6l244.7-8l171,12.9l2.6,31.6"/>
	<path class="st7" d="M1954,1446.4L1954,1446.4L1954,1446.4l-2.1,7.5l-9,4.7l-15,2.1l-13.4,2l-18.8,0.2l-23.4-1.4l-119.3-7.3
		l-244.3-49.3l-276.3-75.8l0,0l0,0l-0.1-0.1l-0.4-0.1l0,0l-191.7-52.5l-172-55.6l-122.7-47.4l-125-48.2l-74.5-40.9l5.9-22.1l0,0
		v-0.1v-0.1l0,0l2.1-7.5l9-4.7l15-2.1l13.5-2l18.8-0.2l23.4,1.4l119.3,7.3l244.3,49.3l276.4,75.8l0,0l0,0h0.2l0.4,0.1l0,0
		l191.7,52.5l171.9,55.6l122.7,47.4l125,48.2l74.5,40.9L1954,1446.4L1954,1446.4L1954,1446.4z M1944.7,1443.9L1944.7,1443.9v-0.2
		l0,0c4.3-16.6-67.9-53.6-188-100l-122.4-47.2l-171.6-55.5l-191.5-52.5l-0.6-0.2l0,0L995,1112.9l-243.5-49.2l-118.8-7.2l-22.9-1.4
		l-18.1,0.2l-12.6,1.9l-11,1.6l-6.3,2.4l-1,3.4v0.1v0.1c-4.3,16.6,67.9,53.7,188,100l122.4,47.2l171.6,55.5l191.5,52.5l0.6,0.2l0,0
		l275.8,75.6l243.5,49.1l118.8,7.2l22.9,1.4l18.1-0.2l12.7-1.8l10.9-1.6l6.3-2.5L1944.7,1443.9L1944.7,1443.9z"/>
	<path class="st7" d="M1845.9,1674.6L1845.9,1674.6L1845.9,1674.6L1845.9,1674.6l-0.4,0.5l0,0l0,0c-4.6,6-14.5,7.2-29.1,4.2
		l-13.2-2.7l-17.7-6.3l-21.6-9.3l-109.6-47.6l-212.7-129.9L1208,1317.5l0,0l0,0l0,0l0,0l0,0l0,0l0,0l0,0 M1838,1669.3L1838,1669.3
		L1838,1669.3L1838,1669.3z M1818.4,1670l10.7,2.2l6.7-0.2l2.1-2.8l0,0l0.1-0.1l0.1-0.1l0.1-0.1l0,0c9.3-14.4-45.9-73.8-142.5-158.1
		l-98.9-86.3l-142.4-111l-162-114.9l0,0l-0.3-0.2l0,0l0,0l-0.3-0.2l-0.1-0.1l-162-114.9l-151.8-97.4L864,921.2l-111.7-63.4
		l-74.4-32.4l-10.3,13.7v0.1v0.1v0.1l0,0l0,0l0,0c-9.4,14.3,45.7,73.8,142.4,158.1l98.9,86.3l142.3,110.9l162,114.9l0,0l0.6,0.4
		l-0.7-0.5l0.5,0.3l0,0l233.4,165.4l212.1,129.6l109.1,47.4l21,9.2l17.1,6.1L1818.4,1670L1818.4,1670z M1208,1317.5
		C1208,1317.6,1208,1317.6,1208,1317.5z M1207.9,1317.5L1207.9,1317.5 M1207.9,1317.5l-0.4-0.3l-162.3-115.1L902.7,1091l-99.1-86.5
		l-100.9-88l-56-64l13-18.9l0,0l0.1-0.2l0.1-0.2l0.3-0.3c14.6-17.4,93,14.3,208.4,79.8L983,977.7l152.1,97.8l162.3,115.1l0,0
		l0.5,0.3l-0.5-0.3l0.2,0.1l0.3,0.2l0.1,0.1l162.3,115.1l142.6,111.2l99.1,86.5l100.9,88l56,64l-12.9,18.9l0,0 M659.7,833.8
		L659.7,833.8L659.7,833.8z M667.5,839.3L667.5,839.3 M667.5,839.3L667.5,839.3 M1297.6,1190.8L1297.6,1190.8L1297.6,1190.8z
		 M1292.2,1198.6L1292.2,1198.6L1292.2,1198.6L1292.2,1198.6L1292.2,1198.6z M1292.3,1198.6L1292.3,1198.6L1292.3,1198.6z
		 M1292.4,1198.7L1292.4,1198.7L1292.4,1198.7z"/>
	<path class="st7" d="M1666.1,1852.3L1666.1,1852.3L1666.1,1852.3c-6.4,4.3-16.3,2.2-29.1-5.8c-11.5-7.1-26-19.1-43-35.1
		c-86.7-82.2-242.1-277.2-405-513c-0.2-0.3,0.5,0.7-0.3-0.3l0,0c-113-163.8-209-317-272.5-432c-64.7-117.4-95.5-196.7-76.7-209.8
		h0.1l0,0l0,0l0,0c19-12.8,82.3,43.9,169.1,145.9c85.2,100,194.7,244,307.8,407.8l0.2,0.3l0,0v0.1l0,0
		c22.3,32.2,44.4,64.7,66.1,97.3c20.6,31,41.1,62.1,61.2,93.5c100.3,156.2,175.6,289.4,209.1,368.9l0.1,0.1c2.6,6.2,5,12,6.9,17.3
		c2.1,5.5,3.9,10.6,5.5,15.4C1674.1,1829.3,1674.7,1846.5,1666.1,1852.3L1666.1,1852.3L1666.1,1852.3z M1660.7,1844.4L1660.7,1844.4
		L1660.7,1844.4c4.7-3.4,3-16.8-4.2-38.9c-1.5-4.7-3.3-9.6-5.3-14.9c-2.1-5.5-4.4-11.1-6.8-17l-0.1-0.1
		c-33.3-78.9-108.3-211.7-208.4-367.4c-20.1-31.3-40.4-62.4-61.1-93.3c-21.8-32.6-43.7-65-66-97.2l0,0l-0.1-0.1l0,0l-0.2-0.3
		c-112.7-163.3-221.9-307-307.1-407c-83.5-98-142.4-153.9-156.6-144.2l0,0l0,0l0,0l0,0c-14,10,17.5,84.7,79.6,197.4
		c63.4,115,159.2,267.9,272.1,431.3l0.1,0.1l0.1,0.2l0.1,0.1v0.1c162.5,235.2,317.3,429.4,403.6,511.3c16.6,15.8,30.5,27.3,41.5,34
		C1651.4,1844.2,1657.9,1846.4,1660.7,1844.4L1660.7,1844.4z M1196.8,1293.2L1196.8,1293.2 M1196.8,1293.1L1196.8,1293.1"/>
	<path class="st0" d="M1201.5,715.4c46.3-61.1,100.8-119.1,157.2-143.1c90.8-38.7,176.5,6.7,184.8,105.1
		c4.3,51-13.1,107.1-40.9,142.6c-40.9,52-116.1,91.4-157.9,126c-31.1,25.7-33.3,36.9-38.5,74.7c-3.7,27.7-5,56.2-4.1,85.8
		l-66.1,46.5c-0.9-44.9,0.3-89.9,3.6-132.3c2.1-25.6,5.5-47.6,10.6-63.8c9.2-28.8,25.9-44.7,64.2-72.3c38.8-27.8,91-59.9,122.8-89.6
		c28.6-26.6,55.6-64.7,61.8-104.7c4.6-29.1-3-56.5-20.2-73.9c-15.2-15.3-37.9-22.9-66.5-16.9c-19,4-37.8,13.2-53.2,25.8
		c-36.6,30.1-69.8,81.1-104.5,142.1C1237,751.4,1219.3,731.5,1201.5,715.4L1201.5,715.4z M1167.1,1296.2l17.3,22.3l-75.5,38.4
		c23.1,25.5,39.9,56.3,58.7,86.3c-20.8,7.6-34.8,13.6-55.6,21.1c-5.4-31-16.5-58.4-39.1-89.1l-132.3,67.3
		c21.1,63.7,37.6,135.2-49.7,163.3c-71.6,23.1-131.2-3-177.9-47.5l-87.2,44.3l-17.3-22.3l84.4-43c-35-40.2-61.4-88.6-79-135.9
		c19.6-1.4,41.1-2.6,60.6-4c6.2,38.7,15.2,80.5,47.9,122.9l1.1,1.5l144.3-73.4c-20.7-59.7-35.8-122.7,46.2-149.2
		c49.4-16,122.5-9.2,174.6,36.8L1167.1,1296.2z M877.5,1474.8l-133.8,68c35.1,31,81.6,44.7,119.9,32.3
		C905.2,1561.7,893.9,1521.3,877.5,1474.8L877.5,1474.8z M931.6,1416.1l121.9-62c-28.5-23.9-74.4-39-115.6-25.7
		C907.6,1338.2,917.3,1373.4,931.6,1416.1z M1269.4,1338.2l21-18.8l43.8,72.5c23.7-24.8,53.2-43.8,81.8-64.8
		c9,20.2,16.1,33.7,25.1,53.9c-30.5,7.7-57,20.7-86,45.5l76.7,127c62-25.7,132-47.4,166.5,37.7c28.2,69.7,6.5,131-34.6,180.9
		l50.5,83.7l-21,18.8l-48.9-81.1c-37.6,37.8-83.9,67.6-129.8,88.7c-2.8-19.4-5.6-40.8-8.4-60.3c38.1-9,79.2-21,119.1-56.7l1.3-1.2
		l-83.7-138.6c-58,24.9-119.9,44.6-152.1-35.3c-19.4-48.2-18-121.5,24.1-176.8L1269.4,1338.2L1269.4,1338.2z M1468.4,1614.2
		l77.5,128.5c28.4-37.3,38.7-84.5,23.6-121.9C1553.1,1580.2,1513.6,1594.4,1468.4,1614.2L1468.4,1614.2z M1405.9,1564.4l-70.7-117
		c-21.8,30.2-33.4,77-17.2,117.2C1330,1594,1364.4,1581.8,1405.9,1564.4L1405.9,1564.4z M1315.4,1201.3l-16.9-22.6l76-37.2
		c-22.6-25.9-39-56.9-57.4-87.3c20.9-7.2,34.9-13.1,55.9-20.3c5,31.1,15.7,58.7,37.7,89.8l133.4-65.2
		c-20.1-64-35.6-135.7,52.2-162.4c71.9-22,131.1,5,177.1,50.4l87.8-43l16.9,22.6l-85,41.6c34.4,40.7,60,89.5,76.9,137.2
		c-19.6,1-41.1,2-60.7,3.1c-5.6-38.8-13.9-80.7-46-123.6c-0.4-0.5-0.7-0.9-1.1-1.5l-145.4,71.2c19.8,60,33.8,123.3-48.6,148.4
		c-49.7,15.1-122.6,7.2-174-39.5L1315.4,1201.3z M1607.9,1027.5l134.8-66c-34.7-31.6-80.8-46-119.4-34.3
		C1581.5,940,1592.2,980.6,1607.9,1027.5L1607.9,1027.5z M1552.8,1085.2l-122.8,60.1c28.1,24.3,73.8,40.1,115.3,27.5
		C1575.6,1163.5,1566.5,1128.2,1552.8,1085.2L1552.8,1085.2z M1211.3,1169.1l-21.2,18.6l-43.1-73c-24,24.6-53.7,43.3-82.5,64
		c-8.8-20.3-15.8-33.8-24.6-54.2c30.5-7.4,57.3-20.2,86.5-44.7L1051.1,952c-62.2,25.2-132.5,46.1-166-39.2
		c-27.5-70-5.1-131.1,36.3-180.5l-49.7-84.2l21.2-18.6l48.1,81.6c37.9-37.5,84.5-66.8,130.8-87.3c2.6,19.4,5.1,40.8,7.8,60.3
		c-38.2,8.6-79.4,20.2-119.7,55.5l-1.4,1.2l82.3,139.5c58.3-24.4,120.3-43.3,151.8,36.8c19,48.4,16.7,121.7-25.9,176.6
		L1211.3,1169.1z M1015.2,891.1l-76.2-129.3c-28.8,37-39.5,84.2-24.8,121.6C930.1,924.2,969.8,910.4,1015.2,891.1L1015.2,891.1z
		 M1077.1,941.5l69.5,117.8c22-29.9,34.2-76.7,18.4-117C1153.3,912.8,1118.8,924.5,1077.1,941.5L1077.1,941.5z M1776.2,1221.1
		c60.5,47.2,117.7,102.4,141.1,159.1c37.5,91.3-9.1,176.4-107.4,183.4c-51.1,3.6-106.9-14.4-142.1-42.8
		c-51.6-41.6-89.9-117.2-124-159.5c-25.3-31.4-36.5-33.8-74.3-39.4c-27.7-4.1-56.2-5.8-85.8-5.1l-45.8-66.7
		c44.9-0.4,89.8,1.4,132.2,5.3c25.6,2.4,47.6,6.1,63.6,11.5c28.6,9.5,44.5,26.4,71.5,65.1c27.4,39.1,58.8,91.7,87.9,124.1
		c26.2,29,64,56.4,103.9,63.2c29,5,56.5-2.2,74.2-19.2c15.5-15,23.4-37.6,17.8-66.3c-3.7-19-12.7-38-25-53.5
		c-29.6-37-80.2-70.8-140.7-106.4C1739.8,1256.1,1759.9,1238.6,1776.2,1221.1L1776.2,1221.1z M1272,1790.3
		c-47,60.6-102,118-158.7,141.4c-91.2,37.7-176.4-8.5-183.7-107c-3.8-51,14.1-107,42.4-142.2c41.4-51.7,117-90.2,159.2-124.3
		c31.3-25.4,33.7-36.6,39.2-74.3c4-27.7,5.6-56.2,5-85.8c22.2-15.3,44.4-30.6,66.6-45.9c0.6,44.1-1.1,88.3-5,132.2
		c-2.3,25.6-6,47.6-11.3,63.7c-9.5,28.7-26.3,44.5-64.9,71.6c-39,27.5-91.5,58.9-123.8,88.3c-28.9,26.3-56.2,64.2-63,104.1
		c-4.9,29,2.4,56.5,19.4,74.1c15,15.5,37.6,23.4,66.3,17.7c19-3.7,37.9-12.8,53.4-25.2c37-29.7,70.6-80.4,106-141
		C1236.8,1754,1254.3,1774.1,1272,1790.3L1272,1790.3z M715.5,1293c-62.5-44.4-122.2-97.1-147.9-152.7
		c-41.5-89.5,1.2-176.6,99.2-188c50.8-5.9,107.4,9.7,143.9,36.4c53.2,39.2,95,113.2,130.9,153.9c26.6,30.3,37.9,32.1,75.9,36.2
		c27.8,2.9,56.4,3.3,85.9,1.4l48.6,64.6c-44.8,2.3-89.8,2.5-132.3,0.5c-25.7-1.2-47.8-4-64.1-8.7c-29.1-8.3-45.6-24.5-74.3-61.8
		c-29.1-37.8-62.7-89.1-93.3-120c-27.5-27.8-66.4-53.5-106.6-58.6c-29.1-3.6-56.3,4.8-73.2,22.5c-14.9,15.7-21.7,38.6-14.9,67.1
		c4.6,18.8,14.4,37.4,27.4,52.3c31.2,35.7,83.2,67.2,145.3,100C750.3,1256.4,731,1274.8,715.5,1293L715.5,1293z"/>
</g>
<g>
	<path class="st1" d="M2284.6,1444.5H215.4c-97.4,0-176.4-79-176.4-176.4v-36.1c0-97.4,79-176.4,176.4-176.4h2069.2
		c97.4,0,176.4,79,176.4,176.4v36.1C2461,1365.5,2382,1444.5,2284.6,1444.5z"/>
	<g>
		<g>
			<path class="st8" d="M282.5,1346.5H177.4v-44.4h16.2v-96.7h-16.2v-44.5h113.4c22.3,0,39.4,1.3,51.6,3.9c12,2.7,21.5,8,28.3,15.9
				c6.9,8.1,10.2,17.5,10.2,28.3c0,10.5-3.3,18.8-9.7,25.1c-6.7,6.4-14.8,10.9-24.3,13.3c13.1,3.9,23.1,10,30.1,18.1
				c7.2,8.4,10.7,17.8,10.7,28.1c0,12.5-4,23.1-12,31.7c-8,8.7-19,14.3-33,17C329.1,1345.1,309,1346.5,282.5,1346.5z M265.4,1201.8
				v33.8h15.9c10.8,0,17.8-1.6,21.2-4.7c3.2-3.1,4.8-7.2,4.8-12.3c0-4.3-1.5-8.2-4.4-11.8c-2.9-3.4-11-5.2-24.1-5.2L265.4,1201.8
				L265.4,1201.8z M265.4,1269.2v36.6h16.2c10.3,0,17.8-1.3,22.3-4c4.4-2.7,6.6-7.4,6.6-14.1c0-6.4-2-11-6-14
				c-4-2.9-11.8-4.4-23.2-4.4H265.4z"/>
			<path class="st8" d="M514.1,1346.5H408.4V1302h17.1v-96.8h-17.1v-44.4h105.8v44.4h-17v96.8h17V1346.5z"/>
			<path class="st8" d="M641,1346.5H535.9v-44.4h16.2v-96.7h-16.2v-44.5h113.4c22.3,0,39.4,1.3,51.6,3.9c12,2.7,21.5,8,28.3,15.9
				c6.9,8.1,10.2,17.5,10.2,28.3c0,10.5-3.3,18.8-9.7,25.1c-6.7,6.4-14.8,10.9-24.3,13.3c13.1,3.9,23.1,10,30.1,18.1
				c7.2,8.4,10.7,17.8,10.7,28.1c0,12.5-4,23.1-12,31.7c-8,8.7-19,14.3-33,17C687.7,1345.1,667.5,1346.5,641,1346.5z M623.9,1201.8
				v33.8h15.9c10.8,0,17.8-1.6,21.2-4.7c3.2-3.1,4.8-7.2,4.8-12.3c0-4.3-1.5-8.2-4.4-11.8c-2.9-3.4-11-5.2-24.1-5.2L623.9,1201.8
				L623.9,1201.8z M623.9,1269.2v36.6h16.2c10.3,0,17.8-1.3,22.3-4c4.4-2.7,6.6-7.4,6.6-14.1c0-6.4-2-11-6-14
				c-4-2.9-11.8-4.4-23.2-4.4H623.9z"/>
			<path class="st8" d="M943.7,1346.5H767.2v-44.4h16.7v-96.7h-16.7v-44.5h106v44.5h-17.6v96.5h43.9v-29.5h44.3L943.7,1346.5
				L943.7,1346.5z"/>
			<path class="st8" d="M1063.4,1346.5H957.7V1302h17.1v-96.8h-17.1v-44.4h105.8v44.4h-17v96.8h17V1346.5z"/>
			<path class="st8" d="M1086.9,1253.2c0-15.5,3.8-30.5,11.3-45c7.5-14.4,19.1-26.6,34.8-36.5c5.6-3.4,11.4-6.2,17.3-8.3
				c5.9-2,12.4-3.6,19.3-4.8c6.9-1.1,14.2-1.7,21.9-1.7c33.2,0,59,9.7,77.2,29.2c9.1,9.6,15.9,20.1,20.6,31.3
				c4.6,11.2,7,23.1,7,35.7c0,25.9-9.5,48.4-28.3,67.6c-18.8,19.2-44.4,28.7-76.4,28.7c-31,0-56.2-9-75.5-26.9
				C1096.7,1304.7,1086.9,1281.5,1086.9,1253.2z M1167.5,1253.2c0,20.7,2,34.6,6,41.9c3.8,7.3,9.8,11,18,11
				c8.1,0,14.1-3.5,18.1-10.6c4-7.2,6-21.2,6-42.2c0-20.4-1.9-34.3-5.8-41.7c-3.8-7.3-9.9-11-18.3-11c-8,0-14,3.5-18,10.6
				C1169.6,1218.2,1167.5,1232.2,1167.5,1253.2z"/>
			<path class="st8" d="M1395,1346.5h-76.3v-44.4h16.3v-96.7h-16.3v-44.5h88l67.6,97v-52.5h-15.1v-44.5h74.9v44.5H1518V1349h-61.1
				l-78.2-112.3v65.4h16.4L1395,1346.5L1395,1346.5z"/>
			<path class="st8" d="M1615.6,1346.5h-73.5v-44.4h14.1l34.8-96.7h-14.9v-44.5h133.5v44.5h-14.9l35.5,96.7h13.6v44.4h-96.9v-40.8
				h16.3l-7.1-23.4h-47.5l-8.1,23.4h15.2V1346.5z M1633.1,1207.9l-17.5,51.3h33.2L1633.1,1207.9z"/>
			<path class="st8" d="M1859.5,1346.5h-101v-44.4h15.1v-96.7h-15.1v-44.5h100.8c9.1,0,17.5,0.2,25.2,0.4c7.8,0.4,14.3,0.8,19.9,1.3
				c5.5,0.6,10.6,1.3,15.2,2.3c13,2.7,23.5,8.7,31.6,18c8.2,9.5,12.3,20.5,12.3,33.3c0,9.6-2.5,18.3-7.5,26.1
				c-4.9,7.7-11.5,13.4-19.6,17.1l25.6,42.4h13.3v44.4h-66.9l-40.4-75.7h-22.7v31.3h14L1859.5,1346.5L1859.5,1346.5z M1845.6,1201.7
				v35.3h8c10.4,0,17.5-0.3,21.3-0.9c4-0.6,7.3-2.4,10.1-5.3c2.7-2.7,4.2-6.5,4.2-11.3c0-4.8-1.4-8.6-4.2-11.4
				c-2.7-2.9-6.3-4.7-10.5-5.3c-4.1-0.7-11.5-1.1-22.4-1.1H1845.6z"/>
			<path class="st8" d="M2095.4,1346.5h-105.8V1302h17.1v-96.8h-17.1v-44.4h105.8v44.4h-17v96.8h17V1346.5z"/>
			<path class="st8" d="M2118.9,1253.2c0-15.5,3.8-30.5,11.3-45c7.5-14.4,19.1-26.6,34.8-36.5c5.6-3.4,11.4-6.2,17.3-8.3
				c5.9-2,12.4-3.6,19.3-4.8s14.2-1.7,21.9-1.7c33.2,0,59,9.7,77.2,29.2c9.1,9.6,15.9,20.1,20.6,31.3c4.6,11.2,7,23.1,7,35.7
				c0,25.9-9.5,48.4-28.3,67.6c-18.8,19.2-44.4,28.7-76.4,28.7c-31,0-56.2-9-75.5-26.9C2128.6,1304.7,2118.9,1281.5,2118.9,1253.2z
				 M2199.4,1253.2c0,20.7,2,34.6,6,41.9c3.8,7.3,9.8,11,18,11c8.1,0,14.1-3.5,18.1-10.6c4-7.2,6-21.2,6-42.2
				c0-20.4-1.9-34.3-5.8-41.7c-3.8-7.3-9.9-11-18.3-11c-8,0-14,3.5-18,10.6C2201.4,1218.2,2199.4,1232.2,2199.4,1253.2z"/>
		</g>
		<g>
			<path class="st9" d="M276.8,1340H171.7v-44.4h16.2V1199h-16.2v-44.5h113.4c22.3,0,39.4,1.3,51.6,3.9c12,2.7,21.5,8,28.3,15.9
				c6.9,8.1,10.2,17.5,10.2,28.3c0,10.5-3.3,18.8-9.7,25.1c-6.7,6.4-14.8,10.9-24.3,13.3c13.1,3.9,23.1,10,30.1,18.1
				c7.2,8.4,10.7,17.8,10.7,28.1c0,12.5-4,23.1-12,31.7c-8,8.7-19,14.3-33,17C323.4,1338.7,303.3,1340,276.8,1340z M259.7,1195.3
				v33.8h15.9c10.8,0,17.8-1.6,21.2-4.7c3.2-3.1,4.8-7.2,4.8-12.3c0-4.3-1.5-8.2-4.4-11.8c-2.9-3.4-11-5.2-24.1-5.2L259.7,1195.3
				L259.7,1195.3z M259.7,1262.7v36.6h16.2c10.3,0,17.8-1.3,22.3-4c4.4-2.7,6.6-7.4,6.6-14.1c0-6.4-2-11-6-14
				c-4-2.9-11.8-4.4-23.2-4.4H259.7z"/>
			<path class="st9" d="M508.4,1340H402.7v-44.4h17.1v-96.8h-17.1v-44.4h105.8v44.4h-17v96.8h17L508.4,1340L508.4,1340z"/>
			<path class="st9" d="M635.3,1340h-105v-44.4h16.2V1199h-16.2v-44.5h113.4c22.3,0,39.4,1.3,51.6,3.9c12,2.7,21.5,8,28.3,15.9
				c6.9,8.1,10.2,17.5,10.2,28.3c0,10.5-3.3,18.8-9.7,25.1c-6.7,6.4-14.8,10.9-24.3,13.3c13.1,3.9,23.1,10,30.1,18.1
				c7.2,8.4,10.7,17.8,10.7,28.1c0,12.5-4,23.1-12,31.7s-19,14.3-33,17C681.9,1338.7,661.8,1340,635.3,1340z M618.2,1195.3v33.8
				h15.9c10.8,0,17.8-1.6,21.2-4.7c3.2-3.1,4.8-7.2,4.8-12.3c0-4.3-1.5-8.2-4.4-11.8c-2.9-3.4-11-5.2-24.1-5.2L618.2,1195.3
				L618.2,1195.3z M618.2,1262.7v36.6h16.2c10.3,0,17.8-1.3,22.3-4c4.4-2.7,6.6-7.4,6.6-14.1c0-6.4-2-11-6-14
				c-4-2.9-11.8-4.4-23.2-4.4H618.2z"/>
			<path class="st9" d="M938.1,1340H761.5v-44.4h16.6V1199h-16.7v-44.5h106v44.5h-17.6v96.5h43.9V1266h44.3V1340z"/>
			<path class="st9" d="M1057.8,1340H952v-44.4h17.1v-96.8H952v-44.4h105.8v44.4h-17v96.8h17V1340z"/>
			<path class="st9" d="M1081.3,1246.8c0-15.5,3.8-30.5,11.3-45c7.5-14.4,19.1-26.6,34.8-36.5c5.6-3.4,11.4-6.2,17.3-8.3
				c5.9-2,12.4-3.6,19.3-4.8s14.2-1.7,21.9-1.7c33.2,0,59,9.7,77.2,29.2c9.1,9.6,15.9,20.1,20.6,31.3c4.6,11.2,7,23.1,7,35.7
				c0,25.9-9.5,48.4-28.3,67.6c-18.8,19.2-44.4,28.7-76.4,28.7c-31,0-56.2-9-75.5-26.9C1091,1298.2,1081.3,1275.2,1081.3,1246.8z
				 M1161.9,1246.8c0,20.7,2,34.6,6,41.9c3.8,7.3,9.8,11,18,11c8.1,0,14.1-3.5,18.1-10.6c4-7.2,6-21.2,6-42.2
				c0-20.4-1.9-34.3-5.8-41.7c-3.8-7.3-9.9-11-18.3-11c-8,0-14,3.5-18,10.6C1163.9,1211.7,1161.9,1225.8,1161.9,1246.8z"/>
			<path class="st9" d="M1389.3,1340H1313v-44.4h16.3V1199H1313v-44.5h88l67.6,97V1199h-15.1v-44.5h74.9v44.5h-16.2v143.5h-61.1
				l-78.2-112.3v65.4h16.4L1389.3,1340L1389.3,1340z"/>
			<path class="st9" d="M1609.8,1340h-73.5v-44.4h14.1l34.8-96.7h-14.9v-44.5h133.5v44.5h-14.9l35.5,96.7h13.6v44.4h-96.9v-40.8
				h16.3l-7.1-23.4h-47.5l-8.1,23.4h15.2V1340z M1627.3,1201.5l-17.5,51.3h33.2L1627.3,1201.5z"/>
			<path class="st9" d="M1853.9,1340h-101v-44.4h15.1V1199h-15.1v-44.5h100.8c9.1,0,17.5,0.2,25.2,0.4c7.8,0.4,14.3,0.8,19.9,1.3
				c5.5,0.6,10.6,1.3,15.2,2.3c13,2.7,23.5,8.7,31.6,18c8.2,9.5,12.3,20.5,12.3,33.3c0,9.6-2.5,18.3-7.5,26.1
				c-4.9,7.7-11.5,13.4-19.6,17.1l25.6,42.4h13.3v44.4h-66.8l-40.4-75.7h-22.7v31.3h14L1853.9,1340L1853.9,1340z M1839.8,1195.2
				v35.3h8c10.4,0,17.5-0.3,21.3-0.9c4-0.6,7.3-2.4,10.1-5.3c2.7-2.7,4.2-6.5,4.2-11.3c0-4.8-1.4-8.6-4.2-11.4
				c-2.7-2.9-6.3-4.7-10.5-5.3c-4.1-0.7-11.5-1.1-22.4-1.1H1839.8z"/>
			<path class="st9" d="M2089.6,1340h-105.8v-44.4h17.1v-96.8h-17.1v-44.4h105.8v44.4h-17v96.8h17V1340z"/>
			<path class="st9" d="M2113.1,1246.8c0-15.5,3.8-30.5,11.3-45c7.5-14.4,19.1-26.6,34.8-36.5c5.6-3.4,11.4-6.2,17.3-8.3
				c5.9-2,12.4-3.6,19.3-4.8s14.2-1.7,21.9-1.7c33.2,0,59,9.7,77.2,29.2c9.1,9.6,15.9,20.1,20.6,31.3c4.6,11.2,7,23.1,7,35.7
				c0,25.9-9.5,48.4-28.3,67.6s-44.4,28.7-76.4,28.7c-31,0-56.2-9-75.5-26.9C2122.8,1298.2,2113.1,1275.2,2113.1,1246.8z
				 M2193.7,1246.8c0,20.7,2,34.6,6,41.9c3.8,7.3,9.8,11,18,11c8.1,0,14.1-3.5,18.1-10.6c4-7.2,6-21.2,6-42.2
				c0-20.4-1.9-34.3-5.8-41.7c-3.8-7.3-9.9-11-18.3-11c-8,0-14,3.5-18,10.6C2195.7,1211.7,2193.7,1225.8,2193.7,1246.8z"/>
		</g>
	</g>
</g>
</svg>
